#N canvas 676 0 665 665 10;
#X obj 16 570 cnv 15 400 185 empty empty Rythm\ box 161 11 1 14 -130847
-66577 0;
#X obj 317 645 cnv 15 97 76 empty empty empty 20 12 0 14 -126483 -66577
0;
#X obj 219 645 cnv 15 97 76 empty empty empty 20 12 0 14 -20227 -66577
0;
#X obj 120 645 cnv 15 97 76 empty empty empty 20 12 0 14 -126483 -66577
0;
#X obj 22 645 cnv 15 97 76 empty empty empty 20 12 0 14 -20227 -66577
0;
#X obj 426 49 cnv 15 155 133 empty empty ON/OFF 53 12 1 14 -233017
-66577 0;
#X obj 16 187 cnv 15 400 378 empty empty EFFECTS 172 8 1 14 -108187
-1 0;
#X obj 16 49 cnv 15 399 132 empty empty PITCH 171 10 0 14 -259480 -66577
0;
#X obj 25 14 tgl 15 0 onoff_bo key_onoff empty 17 7 0 10 -262144 -1
-1 1 1;
#X text 44 12 ON/OFF;
#X text 89 12 BPM;
#X floatatom 113 14 7 0 0 0 - bpm_number bpm_manual, f 7;
#X obj 177 15 hsl 128 15 40 100 0 0 volume_amplitude load_volume empty
-2 -8 0 10 -262144 -1 -1 5800 1;
#X text 174 -7 VOLUME CONTROL;
#X floatatom 319 15 5 0 0 0 - volume_number -, f 5;
#X obj 367 4 tgl 15 0 mute mutejar empty 17 7 0 10 -262144 -1 -1 0
1;
#X floatatom 18 73 7 1 48 0 - numdisp1 pitch_1, f 7;
#X obj 26 150 bng 15 250 50 0 randomize randomkey empty 17 7 0 10 -262144
-1 -1;
#X obj 165 150 hradio 15 0 0 16 empty seqgraph empty 0 -8 0 10 -262144
-1 -1 15;
#X text 30 242 TRANSPOSE:;
#N canvas 0 0 1350 674 sequence 0;
#X obj 139 329 i;
#X msg 196 270 0;
#X floatatom 139 413 5 0 0 0 - - seqgraph, f 5;
#X obj 173 329 + 1;
#X floatatom 45 198 5 0 0 0 - - -, f 5;
#X obj 45 64 tgl 15 0 empty empty empty 17 7 0 10 -262144 -1 -1 1 1
;
#X floatatom 397 285 5 0 0 0 - seqgraph -, f 5;
#X obj 607 181 bng 15 250 50 0 empty empty empty 17 7 0 10 -262144
-1 -1;
#X obj 622 181 bng 15 250 50 0 empty empty empty 17 7 0 10 -262144
-1 -1;
#X obj 638 181 bng 15 250 50 0 empty empty empty 17 7 0 10 -262144
-1 -1;
#X obj 654 181 bng 15 250 50 0 empty empty empty 17 7 0 10 -262144
-1 -1;
#X obj 144 223 sel 1;
#X obj 670 181 bng 15 250 50 0 empty empty empty 17 7 0 10 -262144
-1 -1;
#X obj 426 395 i, f 1;
#X obj 502 395 i, f 1;
#X obj 541 395 i, f 1;
#X obj 581 395 i, f 1;
#X obj 705 509 s nota;
#X obj 144 271 metro;
#X obj 686 181 bng 15 250 50 0 empty empty empty 17 7 0 10 -262144
-1 -1;
#X obj 701 181 bng 15 250 50 0 empty empty empty 17 7 0 10 -262144
-1 -1;
#X obj 717 181 bng 15 250 50 0 empty empty empty 17 7 0 10 -262144
-1 -1;
#X obj 733 181 bng 15 250 50 0 empty empty empty 17 7 0 10 -262144
-1 -1;
#X obj 749 181 bng 15 250 50 0 empty empty empty 17 7 0 10 -262144
-1 -1;
#X obj 765 181 bng 15 250 50 0 empty empty empty 17 7 0 10 -262144
-1 -1;
#X obj 780 181 bng 15 250 50 0 empty empty empty 17 7 0 10 -262144
-1 -1;
#X obj 796 181 bng 15 250 50 0 empty empty empty 17 7 0 10 -262144
-1 -1;
#X obj 812 181 bng 15 250 50 0 empty empty empty 17 7 0 10 -262144
-1 -1;
#X obj 828 181 bng 15 250 50 0 empty empty empty 17 7 0 10 -262144
-1 -1;
#X obj 139 374 % 16;
#X obj 844 181 bng 15 250 50 0 empty empty empty 17 7 0 10 -262144
-1 -1;
#X obj 607 146 sel 0 1 2 3 4 5 6 7 8 9 10 11 12 13 14 15;
#X obj 619 395 i, f 1;
#X obj 656 396 i, f 1;
#X obj 698 396 i, f 1;
#X obj 737 396 i, f 1;
#X obj 777 395 i, f 1;
#X obj 816 395 i, f 1;
#X obj 854 395 i, f 1;
#X obj 890 395 i, f 1;
#X obj 926 395 i, f 1;
#X obj 962 395 i, f 1;
#X obj 1001 395 i, f 1;
#X obj 463 395 i, f 1;
#X obj 540 219 vsl 15 128 12 128 0 0 empty pitch_1 empty 0 -9 0 10
-262144 -1 -1 1095 1;
#X obj 564 219 vsl 15 128 1 128 0 0 empty pitch_2 empty 0 -9 0 10 -262144
-1 -1 2600 1;
#X obj 587 219 vsl 15 128 1 128 0 0 empty pitch_3 empty 0 -9 0 10 -262144
-1 -1 2600 1;
#X obj 611 219 vsl 15 128 1 128 0 0 empty pitch_4 empty 0 -9 0 10 -262144
-1 -1 2600 1;
#X obj 633 219 vsl 15 128 1 128 0 0 empty pitch_5 empty 0 -9 0 10 -262144
-1 -1 2600 1;
#X obj 657 219 vsl 15 128 1 128 0 0 empty pitch_6 empty 0 -9 0 10 -262144
-1 -1 1300 1;
#X obj 680 219 vsl 15 128 1 128 0 0 empty pitch_7 empty 0 -9 0 10 -262144
-1 -1 3500 1;
#X obj 704 219 vsl 15 128 1 128 0 0 empty pitch_8 empty 0 -9 0 10 -262144
-1 -1 1500 1;
#X obj 728 220 vsl 15 128 1 128 0 0 empty pitch_9 empty 0 -9 0 10 -262144
-1 -1 3200 1;
#X obj 752 220 vsl 15 128 1 128 0 0 empty pitch_10 empty 0 -9 0 10
-262144 -1 -1 3600 1;
#X obj 775 220 vsl 15 128 1 128 0 0 empty pitch_11 empty 0 -9 0 10
-262144 -1 -1 2400 1;
#X obj 799 220 vsl 15 128 1 128 0 0 empty pitch_12 empty 0 -9 0 10
-262144 -1 -1 1800 1;
#X obj 821 220 vsl 15 128 1 128 0 0 empty pitch_13 empty 0 -9 0 10
-262144 -1 -1 1800 1;
#X obj 845 220 vsl 15 128 1 128 0 0 empty pitch_14 empty 0 -9 0 10
-262144 -1 -1 2200 1;
#X obj 868 220 vsl 15 128 1 128 0 0 empty pitch_15 empty 0 -9 0 10
-262144 -1 -1 2200 1;
#X obj 892 220 vsl 15 128 1 128 0 0 empty pitch_16 empty 0 -9 0 10
-262144 -1 -1 1800 1;
#X floatatom 426 440 5 0 0 0 - - numdisp1, f 5;
#X floatatom 463 440 5 0 0 0 - - numdisp2, f 5;
#X floatatom 502 440 5 0 0 0 - - numdisp3, f 5;
#X floatatom 541 440 5 0 0 0 - - numdisp4, f 5;
#X floatatom 581 439 5 0 0 0 - - numdisp5, f 5;
#X floatatom 619 439 5 0 0 0 - - numdisp6, f 5;
#X floatatom 656 439 5 0 0 0 - - numdisp7, f 5;
#X floatatom 698 439 5 0 0 0 - - numdisp8, f 5;
#X floatatom 737 440 5 0 0 0 - - numdisp9, f 5;
#X floatatom 777 440 5 0 0 0 - - numdisp10, f 5;
#X floatatom 816 440 5 0 0 0 - - numdisp11, f 5;
#X floatatom 854 440 5 0 0 0 - - numdisp12, f 5;
#X floatatom 890 439 5 0 0 0 - - numdisp13, f 5;
#X floatatom 926 439 5 0 0 0 - - numdisp14, f 5;
#X floatatom 962 439 5 0 0 0 - - numdisp15, f 5;
#X floatatom 1001 439 5 0 0 0 - - numdisp16, f 5;
#X obj 145 67 tgl 15 0 empty empty empty 17 7 0 10 -262144 -1 -1 0
1;
#X floatatom 145 113 5 0 0 0 - - -, f 5;
#X obj 145 138 sel 1;
#X msg 113 173 0;
#X obj 145 90 ==;
#X msg 204 191 1;
#X msg 145 173 0;
#X msg 176 191 0;
#X obj 282 122 loadbang;
#X msg 282 152 1000;
#X floatatom 358 107 5 0 0 0 - bpm_manual -, f 5;
#X msg 345 156 60000;
#X obj 370 183 /;
#X obj 358 133 t b f;
#X floatatom 369 204 5 0 0 0 - - -, f 5;
#X obj 45 34 r onoff_bo;
#X obj 145 35 r pause;
#X connect 0 0 3 0;
#X connect 0 0 29 0;
#X connect 1 0 0 0;
#X connect 3 0 0 1;
#X connect 4 0 18 0;
#X connect 4 0 11 0;
#X connect 5 0 4 0;
#X connect 5 0 80 1;
#X connect 6 0 31 0;
#X connect 7 0 13 0;
#X connect 8 0 43 0;
#X connect 9 0 14 0;
#X connect 10 0 15 0;
#X connect 11 0 1 0;
#X connect 12 0 16 0;
#X connect 13 0 17 0;
#X connect 13 0 60 0;
#X connect 14 0 17 0;
#X connect 14 0 62 0;
#X connect 15 0 17 0;
#X connect 15 0 63 0;
#X connect 16 0 17 0;
#X connect 16 0 64 0;
#X connect 18 0 0 0;
#X connect 19 0 32 0;
#X connect 20 0 33 0;
#X connect 21 0 34 0;
#X connect 22 0 35 0;
#X connect 23 0 36 0;
#X connect 24 0 37 0;
#X connect 25 0 38 0;
#X connect 26 0 39 0;
#X connect 27 0 40 0;
#X connect 28 0 41 0;
#X connect 29 0 2 0;
#X connect 30 0 42 0;
#X connect 31 0 7 0;
#X connect 31 1 8 0;
#X connect 31 2 9 0;
#X connect 31 3 10 0;
#X connect 31 4 12 0;
#X connect 31 5 19 0;
#X connect 31 6 20 0;
#X connect 31 7 21 0;
#X connect 31 8 22 0;
#X connect 31 9 23 0;
#X connect 31 10 24 0;
#X connect 31 11 25 0;
#X connect 31 12 26 0;
#X connect 31 13 27 0;
#X connect 31 14 28 0;
#X connect 31 15 30 0;
#X connect 32 0 17 0;
#X connect 32 0 65 0;
#X connect 33 0 17 0;
#X connect 33 0 66 0;
#X connect 34 0 17 0;
#X connect 34 0 67 0;
#X connect 35 0 17 0;
#X connect 35 0 68 0;
#X connect 36 0 17 0;
#X connect 36 0 69 0;
#X connect 37 0 17 0;
#X connect 37 0 70 0;
#X connect 38 0 17 0;
#X connect 38 0 71 0;
#X connect 39 0 17 0;
#X connect 39 0 72 0;
#X connect 40 0 17 0;
#X connect 40 0 73 0;
#X connect 41 0 17 0;
#X connect 41 0 74 0;
#X connect 42 0 17 0;
#X connect 42 0 75 0;
#X connect 43 0 17 0;
#X connect 43 0 61 0;
#X connect 44 0 13 1;
#X connect 45 0 43 1;
#X connect 46 0 14 1;
#X connect 47 0 15 1;
#X connect 48 0 16 1;
#X connect 49 0 32 1;
#X connect 50 0 33 1;
#X connect 51 0 34 1;
#X connect 52 0 35 1;
#X connect 53 0 36 1;
#X connect 54 0 37 1;
#X connect 55 0 38 1;
#X connect 56 0 39 1;
#X connect 57 0 40 1;
#X connect 58 0 41 1;
#X connect 59 0 42 1;
#X connect 76 0 80 0;
#X connect 77 0 78 0;
#X connect 78 0 79 0;
#X connect 78 0 82 0;
#X connect 78 1 81 0;
#X connect 78 1 83 0;
#X connect 79 0 4 0;
#X connect 80 0 77 0;
#X connect 81 0 18 0;
#X connect 82 0 11 0;
#X connect 83 0 11 0;
#X connect 84 0 85 0;
#X connect 85 0 18 1;
#X connect 86 0 89 0;
#X connect 87 0 88 0;
#X connect 88 0 90 0;
#X connect 89 0 87 0;
#X connect 89 1 88 1;
#X connect 90 0 18 1;
#X connect 91 0 5 0;
#X connect 92 0 76 0;
#X restore 449 243 pd sequence;
#N canvas 0 0 1334 658 synth 0;
#X obj 188 195 hsl 134 15 40 100 1 0 empty volume_amplitude empty -2
-8 0 10 -262144 -1 -1 7574 1;
#X floatatom 188 255 5 0 0 0 - - -, f 5;
#X obj 188 235 dbtorms;
#X text 228 172 AMPLITUDE SLIDER;
#X obj 198 460 tabwrite~ osciloscope;
#X obj 304 386 tgl 15 0 empty empty empty 17 7 0 10 -262144 -1 -1 1
1;
#X obj 251 411 metro 100;
#X obj 699 38 loadbang;
#X msg 699 67 12;
#X obj 699 95 s init_transpose;
#X obj 590 95 s load_vib_freq;
#X obj 590 38 loadbang;
#X msg 590 66 0.1;
#X obj 491 38 loadbang;
#X msg 491 69 0;
#X obj 491 95 s load_vib_amp;
#X obj 28 -37 r~ waveform;
#X obj 28 -4 clip~ -1 1;
#X obj 28 465 dac~;
#X obj 403 36 loadbang;
#X obj 403 92 s load_volume;
#X msg 403 65 1;
#N canvas 0 0 450 300 (subpatch) 0;
#X array osciloscope 100 float 3 black black;
#A 0 0 0 0 0 0 0 0 0 0 0 0 0 0 0 0 0 0 0 0 0 0 0 0 0 0 0 0 0 0 0 0
0 0 0 0 0 0 0 0 0 0 0 0 0 0 0 0 0 0 0 0 0 0 0 0 0 0 0 0 0 0 0 0 0 0
0 0 0 0 0 0 0 0 0 0 0 0 0 0 0 0 0 0 0 0 0 0 0 0 0 0 0 0 0 0 0 0 0 0
0;
#X coords 0 1 100 -1 200 140 1;
#X restore 403 358 graph;
#X obj 52 494 adsr~;
#X obj 28 163 vcf~;
#N canvas 334 0 665 658 env 0;
#X floatatom 599 -37 5 5 50 0 - adsr_res -, f 5;
#X obj 209 31 sel 0;
#X floatatom 206 69 5 0 0 0 - - -, f 5;
#X floatatom 209 -9 5 0 0 0 - - -, f 5;
#X floatatom 262 75 5 0 0 0 - - -, f 5;
#X floatatom 422 -38 5 0 0 0 - - -, f 5;
#X floatatom 533 -37 7 0 5000 0 - adsr_cutoff -, f 7;
#X obj 209 262 *~ 2000;
#X floatatom 488 -37 5 0 1 0 - adsr_mod_env -, f 5;
#X obj 209 309 +~;
#X text 401 148 Amplitude Envelop;
#X obj 209 352 *~;
#X obj 209 -31 inlet;
#X text 426 217 Filter Envelop;
#N canvas -8 -8 1350 674 adsr 0;
#X obj 448 65 inlet;
#X obj 573 185 inlet;
#X text 444 40 trigger;
#X obj 448 93 sel 0;
#X obj 382 189 t b;
#X obj 304 298 f \$1;
#X obj 304 323 pack 0 \$2;
#X obj 630 185 inlet;
#X obj 576 315 del \$2;
#X obj 596 463 line~;
#X obj 600 338 f \$4;
#X obj 639 413 pack 0 \$3;
#X obj 692 185 inlet;
#X obj 754 185 inlet;
#X obj 827 184 inlet;
#X msg 448 124 stop;
#X obj 750 340 pack 0 \$5;
#X text 573 163 level;
#X obj 639 389 * \$1;
#X obj 596 488 outlet~;
#X obj 600 363 * 0.01;
#X text 626 163 attack;
#X text 693 162 decay;
#X text 747 163 sustain;
#X text 824 163 release;
#X text 340 105 attack;
#X obj 342 126 moses;
#X obj 332 156 t b b;
#X msg 266 324 0;
#X text 577 147 peak;
#X connect 0 0 3 0;
#X connect 1 0 5 1;
#X connect 1 0 18 1;
#X connect 3 0 15 0;
#X connect 3 0 16 0;
#X connect 3 1 26 0;
#X connect 4 0 5 0;
#X connect 4 0 8 0;
#X connect 5 0 6 0;
#X connect 6 0 9 0;
#X connect 7 0 6 1;
#X connect 7 0 8 1;
#X connect 8 0 10 0;
#X connect 9 0 19 0;
#X connect 10 0 20 0;
#X connect 11 0 9 0;
#X connect 12 0 11 1;
#X connect 13 0 10 1;
#X connect 14 0 16 1;
#X connect 15 0 8 0;
#X connect 16 0 9 0;
#X connect 18 0 11 0;
#X connect 20 0 18 0;
#X connect 26 0 27 0;
#X connect 26 1 4 0;
#X connect 27 0 4 0;
#X connect 27 1 28 0;
#X connect 28 0 9 0;
#X restore 149 152 pd adsr 2 5 30 50 10;
#N canvas -8 -8 1350 674 adsr2 0;
#X obj 435 83 inlet;
#X obj 560 203 inlet;
#X text 431 58 trigger;
#X obj 435 111 sel 0;
#X obj 369 207 t b;
#X obj 291 316 f \$1;
#X obj 291 341 pack 0 \$2;
#X obj 617 203 inlet;
#X obj 563 333 del \$2;
#X obj 583 481 line~;
#X obj 587 356 f \$4;
#X obj 626 431 pack 0 \$3;
#X obj 679 203 inlet;
#X obj 741 203 inlet;
#X obj 814 202 inlet;
#X msg 435 142 stop;
#X obj 737 358 pack 0 \$5;
#X text 560 181 level;
#X obj 626 407 * \$1;
#X obj 583 506 outlet~;
#X obj 587 381 * 0.01;
#X text 613 181 attack;
#X text 680 180 decay;
#X text 734 181 sustain;
#X text 811 181 release;
#X text 327 123 attack;
#X obj 329 144 moses;
#X obj 319 174 t b b;
#X msg 253 342 0;
#X text 564 165 peak;
#X connect 0 0 3 0;
#X connect 1 0 5 1;
#X connect 1 0 18 1;
#X connect 3 0 15 0;
#X connect 3 0 16 0;
#X connect 3 1 26 0;
#X connect 4 0 5 0;
#X connect 4 0 8 0;
#X connect 5 0 6 0;
#X connect 6 0 9 0;
#X connect 7 0 6 1;
#X connect 7 0 8 1;
#X connect 8 0 10 0;
#X connect 9 0 19 0;
#X connect 10 0 20 0;
#X connect 11 0 9 0;
#X connect 12 0 11 1;
#X connect 13 0 10 1;
#X connect 14 0 16 1;
#X connect 15 0 8 0;
#X connect 16 0 9 0;
#X connect 18 0 11 0;
#X connect 20 0 18 0;
#X connect 26 0 27 0;
#X connect 26 1 4 0;
#X connect 27 0 4 0;
#X connect 27 1 28 0;
#X connect 28 0 9 0;
#X restore 209 217 pd adsr2 2 5 30 0 0;
#X text 483 -61 ModEnv;
#X text 528 -62 CutOff freq;
#X text 415 -63 Decay;
#X text 601 -65 Resonance;
#X obj 38 227 outlet~;
#X obj 157 396 outlet~;
#X obj 599 23 outlet;
#X text 207 -55 Velocity;
#X connect 0 0 22 0;
#X connect 1 0 2 0;
#X connect 1 1 4 0;
#X connect 2 0 14 0;
#X connect 2 0 15 0;
#X connect 3 0 1 0;
#X connect 4 0 14 0;
#X connect 4 0 15 0;
#X connect 5 0 14 3;
#X connect 5 0 15 3;
#X connect 6 0 9 1;
#X connect 7 0 9 0;
#X connect 8 0 11 1;
#X connect 9 0 11 0;
#X connect 11 0 21 0;
#X connect 12 0 3 0;
#X connect 14 0 20 0;
#X connect 15 0 7 0;
#X restore 82 105 pd env;
#X obj 82 43 r velocity;
#X obj 82 70 i;
#X obj 197 281 s volume_number;
#X obj 129 90 s velocity_int;
#X obj 74 230 r seqgraph;
#X obj 188 336 * 4;
#X obj 74 296 ead~;
#X obj 88 252 r velocity;
#X obj 102 271 r adsr_decay;
#X obj 64 261 bng 15 250 50 0 empty empty empty 17 7 0 10 -262144 -1
-1;
#X obj 28 344 *~;
#X text 103 23 ENVELOPE FILTERS;
#X text 75 204 ATTACK / DECAY;
#X obj 404 133 loadbang;
#X msg 404 162 60;
#X obj 404 189 s load_velocity;
#X msg -95 324 0;
#X msg -67 324 1;
#X text -187 210 Envelope yes / No;
#X obj -95 232 r disable_ad;
#X obj -95 263 sel 1;
#X obj 28 377 *~;
#X obj -23 389 *~;
#X obj -26 477 dac~;
#X msg -44 299 0;
#X msg -16 299 1;
#X obj 28 415 *~;
#X obj 519 132 loadbang;
#X obj 519 188 s load_decay;
#X msg 519 161 100;
#X obj 619 132 loadbang;
#X obj 619 188 s load_mod_env;
#X msg 619 161 0.6;
#X obj 719 132 loadbang;
#X obj 719 188 s load_cutoff;
#X msg 719 161 100;
#X obj 819 132 loadbang;
#X obj 819 188 s load_res;
#X msg 819 160 5;
#X obj -26 420 *~;
#X obj -153 365 r volume_number;
#X obj -141 393 * 4;
#X connect 0 0 2 0;
#X connect 1 0 28 0;
#X connect 1 0 31 0;
#X connect 2 0 1 0;
#X connect 5 0 6 0;
#X connect 6 0 4 0;
#X connect 7 0 8 0;
#X connect 8 0 9 0;
#X connect 11 0 12 0;
#X connect 12 0 10 0;
#X connect 13 0 14 0;
#X connect 14 0 15 0;
#X connect 16 0 17 0;
#X connect 17 0 24 0;
#X connect 19 0 21 0;
#X connect 21 0 20 0;
#X connect 24 0 36 0;
#X connect 24 0 48 0;
#X connect 25 1 24 1;
#X connect 25 2 24 2;
#X connect 26 0 27 0;
#X connect 27 0 25 0;
#X connect 27 0 29 0;
#X connect 30 0 35 0;
#X connect 31 0 52 1;
#X connect 32 0 36 1;
#X connect 33 0 32 1;
#X connect 34 0 32 2;
#X connect 35 0 32 0;
#X connect 36 0 47 0;
#X connect 39 0 40 0;
#X connect 40 0 41 0;
#X connect 42 0 47 1;
#X connect 43 0 48 1;
#X connect 45 0 46 0;
#X connect 46 0 42 0;
#X connect 46 0 43 0;
#X connect 46 1 50 0;
#X connect 46 1 51 0;
#X connect 47 0 52 0;
#X connect 48 0 65 0;
#X connect 50 0 48 1;
#X connect 51 0 47 1;
#X connect 52 0 18 0;
#X connect 52 0 18 1;
#X connect 52 0 4 0;
#X connect 53 0 55 0;
#X connect 55 0 54 0;
#X connect 56 0 58 0;
#X connect 58 0 57 0;
#X connect 59 0 61 0;
#X connect 61 0 60 0;
#X connect 62 0 64 0;
#X connect 64 0 63 0;
#X connect 65 0 49 0;
#X connect 65 0 49 1;
#X connect 66 0 67 0;
#X connect 67 0 65 1;
#X restore 449 285 pd synth;
#N canvas 196 0 942 681 randomize 1;
#X obj 121 62 bng 15 250 50 0 empty randomize empty 17 7 0 10 -262144
-1 -1;
#X floatatom 119 305 5 0 0 0 - - -, f 5;
#X obj 121 125 t b;
#X obj 252 127 i;
#X obj 252 155 % 16;
#X obj 288 127 + 1;
#X floatatom 252 188 5 0 0 0 - - -, f 5;
#X obj 253 223 sel 0;
#X floatatom 280 263 5 0 0 0 - - -, f 5;
#X msg 216 262 stop;
#X obj 414 403 i;
#X floatatom 414 441 5 0 0 0 - - pitch_1, f 5;
#X obj 414 253 bng 15 250 50 0 empty empty empty 17 7 0 10 -262144
-1 -1;
#X obj 450 403 i;
#X floatatom 450 441 5 0 0 0 - - pitch_2, f 5;
#X obj 450 253 bng 15 250 50 0 empty empty empty 17 7 0 10 -262144
-1 -1;
#X obj 486 403 i;
#X floatatom 486 441 5 0 0 0 - - pitch_3, f 5;
#X obj 486 253 bng 15 250 50 0 empty empty empty 17 7 0 10 -262144
-1 -1;
#X obj 522 403 i;
#X floatatom 522 441 5 0 0 0 - - pitch_4, f 5;
#X obj 522 253 bng 15 250 50 0 empty empty empty 17 7 0 10 -262144
-1 -1;
#X obj 558 403 i;
#X floatatom 558 441 5 0 0 0 - - pitch_5, f 5;
#X obj 558 253 bng 15 250 50 0 empty empty empty 17 7 0 10 -262144
-1 -1;
#X obj 594 403 i;
#X floatatom 594 441 5 0 0 0 - - pitch_6, f 5;
#X obj 594 253 bng 15 250 50 0 empty empty empty 17 7 0 10 -262144
-1 -1;
#X obj 630 403 i;
#X floatatom 630 441 5 0 0 0 - - pitch_7, f 5;
#X obj 630 253 bng 15 250 50 0 empty empty empty 17 7 0 10 -262144
-1 -1;
#X obj 666 403 i;
#X floatatom 666 441 5 0 0 0 - - pitch_8, f 5;
#X obj 666 253 bng 15 250 50 0 empty empty empty 17 7 0 10 -262144
-1 -1;
#X obj 702 403 i;
#X floatatom 702 441 5 0 0 0 - - pitch_9, f 5;
#X obj 702 253 bng 15 250 50 0 empty empty empty 17 7 0 10 -262144
-1 -1;
#X obj 738 403 i;
#X floatatom 738 441 5 0 0 0 - - pitch_10, f 5;
#X obj 738 253 bng 15 250 50 0 empty empty empty 17 7 0 10 -262144
-1 -1;
#X obj 780 403 i;
#X floatatom 780 441 5 0 0 0 - - pitch_11, f 5;
#X obj 780 253 bng 15 250 50 0 empty empty empty 17 7 0 10 -262144
-1 -1;
#X obj 816 403 i;
#X floatatom 816 441 5 0 0 0 - - pitch_12, f 5;
#X obj 816 253 bng 15 250 50 0 empty empty empty 17 7 0 10 -262144
-1 -1;
#X obj 852 403 i;
#X floatatom 852 441 5 0 0 0 - - pitch_13, f 5;
#X obj 852 253 bng 15 250 50 0 empty empty empty 17 7 0 10 -262144
-1 -1;
#X obj 888 403 i;
#X floatatom 888 441 5 0 0 0 - - pitch_14, f 5;
#X obj 888 253 bng 15 250 50 0 empty empty empty 17 7 0 10 -262144
-1 -1;
#X obj 924 403 i;
#X floatatom 924 441 5 0 0 0 - - pitch_15, f 5;
#X obj 924 253 bng 15 250 50 0 empty empty empty 17 7 0 10 -262144
-1 -1;
#X obj 960 403 i;
#X floatatom 960 441 5 0 0 0 - - pitch_16, f 5;
#X obj 960 253 bng 15 250 50 0 empty empty empty 17 7 0 10 -262144
-1 -1;
#X floatatom 672 336 5 0 0 0 - - -, f 5;
#X obj 508 159 sel 0 1 2 3 4 5 6 7 8 9 10 11 12 13 14 15;
#X obj 253 262 bng 19 250 50 0 empty empty empty 17 7 0 10 -262144
-1 -1;
#X obj 121 199 moses 12;
#X obj 43 145 r rand_min;
#X obj 119 256 moses 48;
#X obj 43 206 r rand_max;
#X obj 369 62 s load_min_rand;
#X obj 369 14 loadbang;
#X msg 369 38 12;
#X obj 474 14 loadbang;
#X msg 474 38 48;
#X obj 474 62 s load_max_rand;
#X obj 253 298 s bangperdisp;
#X obj 216 326 s stopmessage;
#X obj 169 46 r stopmessage;
#X obj 119 340 s randomnum;
#X obj 672 299 r randomnum;
#X obj 121 151 random 38;
#X obj 120 98 metro 5;
#X connect 0 0 77 0;
#X connect 1 0 74 0;
#X connect 2 0 76 0;
#X connect 3 0 4 0;
#X connect 3 0 5 0;
#X connect 4 0 6 0;
#X connect 5 0 3 1;
#X connect 6 0 7 0;
#X connect 6 0 59 0;
#X connect 7 0 9 0;
#X connect 7 0 60 0;
#X connect 7 1 8 0;
#X connect 9 0 72 0;
#X connect 10 0 11 0;
#X connect 12 0 10 0;
#X connect 13 0 14 0;
#X connect 15 0 13 0;
#X connect 16 0 17 0;
#X connect 18 0 16 0;
#X connect 19 0 20 0;
#X connect 21 0 19 0;
#X connect 22 0 23 0;
#X connect 24 0 22 0;
#X connect 25 0 26 0;
#X connect 27 0 25 0;
#X connect 28 0 29 0;
#X connect 30 0 28 0;
#X connect 31 0 32 0;
#X connect 33 0 31 0;
#X connect 34 0 35 0;
#X connect 36 0 34 0;
#X connect 37 0 38 0;
#X connect 39 0 37 0;
#X connect 40 0 41 0;
#X connect 42 0 40 0;
#X connect 43 0 44 0;
#X connect 45 0 43 0;
#X connect 46 0 47 0;
#X connect 48 0 46 0;
#X connect 49 0 50 0;
#X connect 51 0 49 0;
#X connect 52 0 53 0;
#X connect 54 0 52 0;
#X connect 55 0 56 0;
#X connect 57 0 55 0;
#X connect 58 0 10 1;
#X connect 58 0 13 1;
#X connect 58 0 16 1;
#X connect 58 0 19 1;
#X connect 58 0 22 1;
#X connect 58 0 25 1;
#X connect 58 0 28 1;
#X connect 58 0 31 1;
#X connect 58 0 34 1;
#X connect 58 0 37 1;
#X connect 58 0 40 1;
#X connect 58 0 43 1;
#X connect 58 0 46 1;
#X connect 58 0 49 1;
#X connect 58 0 52 1;
#X connect 58 0 55 1;
#X connect 59 0 12 0;
#X connect 59 1 15 0;
#X connect 59 2 18 0;
#X connect 59 3 21 0;
#X connect 59 4 24 0;
#X connect 59 5 27 0;
#X connect 59 6 30 0;
#X connect 59 7 33 0;
#X connect 59 8 36 0;
#X connect 59 9 39 0;
#X connect 59 10 42 0;
#X connect 59 11 45 0;
#X connect 59 12 48 0;
#X connect 59 13 51 0;
#X connect 59 14 54 0;
#X connect 59 15 57 0;
#X connect 60 0 71 0;
#X connect 61 1 63 0;
#X connect 62 0 61 1;
#X connect 63 0 1 0;
#X connect 64 0 63 1;
#X connect 66 0 67 0;
#X connect 67 0 65 0;
#X connect 68 0 69 0;
#X connect 69 0 70 0;
#X connect 73 0 77 0;
#X connect 75 0 58 0;
#X connect 76 0 61 0;
#X connect 77 0 2 0;
#X connect 77 0 3 0;
#X restore 449 306 pd randomize;
#N canvas 0 50 665 688 keys 0;
#X obj 85 76 key;
#X floatatom 119 123 5 0 0 0 - - -, f 5;
#X msg 85 123 112;
#X obj 85 158 ==;
#X floatatom 85 185 5 0 0 0 - - -, f 5;
#X obj 85 218 select 1;
#X obj 85 255 bng 15 250 50 0 pausar empty empty 17 7 0 10 -262144
-1 -1;
#X text 87 41 PAUSE;
#X obj 192 67 key;
#X floatatom 226 120 5 0 0 0 - - -, f 5;
#X obj 192 155 ==;
#X floatatom 192 182 5 0 0 0 - - -, f 5;
#X obj 192 215 select 1;
#X obj 192 252 bng 15 250 50 0 mutejar empty empty 17 7 0 10 -262144
-1 -1;
#X text 194 38 MUTE;
#X msg 192 120 109;
#X obj 300 70 key;
#X floatatom 334 123 5 0 0 0 - - -, f 5;
#X obj 300 158 ==;
#X floatatom 300 185 5 0 0 0 - - -, f 5;
#X obj 300 218 select 1;
#X obj 300 255 bng 15 250 50 0 key_onoff empty empty 17 7 0 10 -262144
-1 -1;
#X text 302 41 ON/OFF;
#X msg 300 123 10;
#X obj 397 72 key;
#X floatatom 431 125 5 0 0 0 - - -, f 5;
#X obj 397 160 ==;
#X floatatom 397 187 5 0 0 0 - - -, f 5;
#X obj 397 220 select 1;
#X obj 397 257 bng 15 250 50 0 randomkey empty empty 17 7 0 10 -262144
-1 -1;
#X text 399 43 RANDOMIZE;
#X msg 397 125 114;
#X connect 0 0 1 0;
#X connect 0 0 2 0;
#X connect 1 0 3 1;
#X connect 2 0 3 0;
#X connect 3 0 4 0;
#X connect 4 0 5 0;
#X connect 5 0 6 0;
#X connect 8 0 9 0;
#X connect 8 0 15 0;
#X connect 9 0 10 1;
#X connect 10 0 11 0;
#X connect 11 0 12 0;
#X connect 12 0 13 0;
#X connect 15 0 10 0;
#X connect 16 0 17 0;
#X connect 16 0 23 0;
#X connect 17 0 18 1;
#X connect 18 0 19 0;
#X connect 19 0 20 0;
#X connect 20 0 21 0;
#X connect 23 0 18 0;
#X connect 24 0 25 0;
#X connect 24 0 31 0;
#X connect 25 0 26 1;
#X connect 26 0 27 0;
#X connect 27 0 28 0;
#X connect 28 0 29 0;
#X connect 31 0 26 0;
#X restore 449 222 pd keys;
#X floatatom 68 74 7 1 48 0 - numdisp2 pitch_2, f 7;
#X floatatom 119 74 7 1 48 0 - numdisp3 pitch_3, f 7;
#X floatatom 169 75 7 1 48 0 - numdisp4 pitch_4, f 7;
#X floatatom 217 75 7 1 48 0 - numdisp5 pitch_5, f 7;
#X floatatom 268 76 7 1 48 0 - numdisp6 pitch_6, f 7;
#X floatatom 318 76 7 1 48 0 - numdisp7 pitch_7, f 7;
#X floatatom 368 77 7 1 48 0 - numdisp8 pitch_8, f 7;
#X floatatom 18 107 7 1 48 0 - numdisp9 pitch_9, f 7;
#X floatatom 68 108 7 1 48 0 - numdisp10 pitch_10, f 7;
#X floatatom 119 108 7 1 48 0 - numdisp11 pitch_11, f 7;
#X floatatom 169 109 7 1 48 0 - numdisp12 pitch_12, f 7;
#X floatatom 217 109 7 1 48 0 - numdisp13 pitch_13, f 7;
#X floatatom 267 110 7 1 48 0 - numdisp14 pitch_14, f 7;
#X floatatom 318 110 7 1 48 0 - numdisp15 pitch_15, f 7;
#X floatatom 368 111 7 1 48 0 - numdisp16 pitch_16, f 7;
#X floatatom 99 242 5 12 36 0 - init_transpose transpose, f 5;
#X obj 367 23 tgl 15 0 pause pausar empty 17 7 0 10 -262144 -1 -1 0
1;
#X text 42 24 (enter);
#X text 387 21 PAUSE (P);
#X text 46 147 RANDOMIZE (R);
#X text 109 29 Press S;
#X text 386 2 UNMUTE (M);
#X text 195 283 VIBRATO;
#X obj 177 303 hsl 210 13 0 10 0 0 vib_freq load_vib_freq empty -2
-8 0 10 -262144 -1 -1 0 1;
#X text 37 299 Oscilation frequency:;
#X obj 178 329 hsl 210 13 0 4.95 0 0 vib_amp load_vib_amp empty -2
-8 0 10 -262144 -1 -1 0 1;
#X text 104 327 Amplitude:;
#X obj 24 649 tgl 15 0 bang_1_1 reset empty 17 7 0 10 -262144 -1 -1
0 1;
#X obj 49 649 tgl 15 0 bang_2_1 reset empty 17 7 0 10 -262144 -1 -1
0 1;
#X obj 73 649 tgl 15 0 bang_3_1 reset empty 17 7 0 10 -262144 -1 -1
0 1;
#X obj 98 649 tgl 15 0 bang_4_1 reset empty 17 7 0 10 -262144 -1 -1
0 1;
#X obj 124 649 tgl 15 0 bang_5_1 reset empty 17 7 0 10 -262144 -1 -1
0 1;
#X obj 149 649 tgl 15 0 bang_6_1 reset empty 17 7 0 10 -262144 -1 -1
0 1;
#X obj 173 649 tgl 15 0 bang_7_1 reset empty 17 7 0 10 -262144 -1 -1
0 1;
#X obj 198 649 tgl 15 0 bang_8_1 reset empty 17 7 0 10 -262144 -1 -1
0 1;
#X obj 222 649 tgl 15 0 bang_9_1 reset empty 17 7 0 10 -262144 -1 -1
0 1;
#X obj 247 649 tgl 15 0 bang_10_1 reset empty 17 7 0 10 -262144 -1
-1 0 1;
#X obj 271 649 tgl 15 0 bang_11_1 reset empty 17 7 0 10 -262144 -1
-1 0 1;
#X obj 296 649 tgl 15 0 bang_12_1 reset empty 17 7 0 10 -262144 -1
-1 0 1;
#X obj 322 649 tgl 15 0 bang_13_1 reset empty 17 7 0 10 -262144 -1
-1 0 1;
#X obj 347 649 tgl 15 0 bang_14_1 reset empty 17 7 0 10 -262144 -1
-1 0 1;
#X obj 371 649 tgl 15 0 bang_15_1 reset empty 17 7 0 10 -262144 -1
-1 0 1;
#X obj 396 649 tgl 15 0 bang_16_1 reset empty 17 7 0 10 -262144 -1
-1 0 1;
#X obj 24 666 tgl 15 0 bang_1_2 reset empty 17 7 0 10 -262144 -1 -1
0 1;
#X obj 49 666 tgl 15 0 bang_2_2 reset empty 17 7 0 10 -262144 -1 -1
0 1;
#X obj 73 666 tgl 15 0 bang_3_2 reset empty 17 7 0 10 -262144 -1 -1
0 1;
#X obj 98 666 tgl 15 0 bang_4_2 reset empty 17 7 0 10 -262144 -1 -1
0 1;
#X obj 124 666 tgl 15 0 bang_5_2 reset empty 17 7 0 10 -262144 -1 -1
0 1;
#X obj 149 666 tgl 15 0 bang_6_2 reset empty 17 7 0 10 -262144 -1 -1
0 1;
#X obj 173 666 tgl 15 0 bang_7_2 reset empty 17 7 0 10 -262144 -1 -1
0 1;
#X obj 198 666 tgl 15 0 bang_8_2 reset empty 17 7 0 10 -262144 -1 -1
0 1;
#X obj 222 666 tgl 15 0 bang_9_2 reset empty 17 7 0 10 -262144 -1 -1
0 1;
#X obj 247 666 tgl 15 0 bang_10_2 reset empty 17 7 0 10 -262144 -1
-1 0 1;
#X obj 271 666 tgl 15 0 bang_11_2 reset empty 17 7 0 10 -262144 -1
-1 0 1;
#X obj 296 666 tgl 15 0 bang_12_2 reset empty 17 7 0 10 -262144 -1
-1 0 1;
#X obj 322 666 tgl 15 0 bang_13_2 reset empty 17 7 0 10 -262144 -1
-1 0 1;
#X obj 347 666 tgl 15 0 bang_14_2 reset empty 17 7 0 10 -262144 -1
-1 0 1;
#X obj 371 666 tgl 15 0 bang_15_2 reset empty 17 7 0 10 -262144 -1
-1 0 1;
#X obj 396 666 tgl 15 0 bang_16_2 reset empty 17 7 0 10 -262144 -1
-1 0 1;
#X obj 24 683 tgl 15 0 bang_1_3 reset empty 17 7 0 10 -262144 -1 -1
0 1;
#X obj 49 683 tgl 15 0 bang_2_3 reset empty 17 7 0 10 -262144 -1 -1
0 1;
#X obj 73 683 tgl 15 0 bang_3_3 reset empty 17 7 0 10 -262144 -1 -1
0 1;
#X obj 98 683 tgl 15 0 bang_4_3 reset empty 17 7 0 10 -262144 -1 -1
0 1;
#X obj 124 683 tgl 15 0 bang_5_3 reset empty 17 7 0 10 -262144 -1 -1
0 1;
#X obj 149 683 tgl 15 0 bang_6_3 reset empty 17 7 0 10 -262144 -1 -1
0 1;
#X obj 173 683 tgl 15 0 bang_7_3 reset empty 17 7 0 10 -262144 -1 -1
0 1;
#X obj 198 683 tgl 15 0 bang_8_3 reset empty 17 7 0 10 -262144 -1 -1
0 1;
#X obj 222 683 tgl 15 0 bang_9_3 reset empty 17 7 0 10 -262144 -1 -1
0 1;
#X obj 247 683 tgl 15 0 bang_10_3 reset empty 17 7 0 10 -262144 -1
-1 0 1;
#X obj 271 683 tgl 15 0 bang_11_3 reset empty 17 7 0 10 -262144 -1
-1 0 1;
#X obj 296 683 tgl 15 0 bang_12_3 reset empty 17 7 0 10 -262144 -1
-1 0 1;
#X obj 322 683 tgl 15 0 bang_13_3 reset empty 17 7 0 10 -262144 -1
-1 0 1;
#X obj 347 683 tgl 15 0 bang_14_3 reset empty 17 7 0 10 -262144 -1
-1 0 1;
#X obj 371 683 tgl 15 0 bang_15_3 reset empty 17 7 0 10 -262144 -1
-1 0 1;
#X obj 396 683 tgl 15 0 bang_16_3 reset empty 17 7 0 10 -262144 -1
-1 0 1;
#X obj 24 700 tgl 15 0 bang_1_4 reset empty 17 7 0 10 -262144 -1 -1
0 1;
#X obj 49 700 tgl 15 0 bang_2_4 reset empty 17 7 0 10 -262144 -1 -1
0 1;
#X obj 73 700 tgl 15 0 bang_3_4 reset empty 17 7 0 10 -262144 -1 -1
0 1;
#X obj 98 700 tgl 15 0 bang_4_4 reset empty 17 7 0 10 -262144 -1 -1
0 1;
#X obj 124 700 tgl 15 0 bang_5_4 reset empty 17 7 0 10 -262144 -1 -1
0 1;
#X obj 149 700 tgl 15 0 bang_6_4 reset empty 17 7 0 10 -262144 -1 -1
0 1;
#X obj 173 700 tgl 15 0 bang_7_4 reset empty 17 7 0 10 -262144 -1 -1
0 1;
#X obj 198 700 tgl 15 0 bang_8_4 reset empty 17 7 0 10 -262144 -1 -1
0 1;
#X obj 222 700 tgl 15 0 bang_9_4 reset empty 17 7 0 10 -262144 -1 -1
0 1;
#X obj 247 700 tgl 15 0 bang_10_4 reset empty 17 7 0 10 -262144 -1
-1 0 1;
#X obj 271 700 tgl 15 0 bang_11_4 reset empty 17 7 0 10 -262144 -1
-1 0 1;
#X obj 296 700 tgl 15 0 bang_12_4 reset empty 17 7 0 10 -262144 -1
-1 0 1;
#X obj 322 700 tgl 15 0 bang_13_4 reset empty 17 7 0 10 -262144 -1
-1 0 1;
#X obj 347 700 tgl 15 0 bang_14_4 reset empty 17 7 0 10 -262144 -1
-1 0 1;
#X obj 371 700 tgl 15 0 bang_15_4 reset empty 17 7 0 10 -262144 -1
-1 0 1;
#X obj 396 700 tgl 15 0 bang_16_4 reset empty 17 7 0 10 -262144 -1
-1 0 1;
#N canvas 334 0 665 681 drums 0;
#X obj 144 262 i;
#X msg 168 222 0;
#X floatatom 209 346 5 0 0 0 - - -, f 5;
#X obj 187 287 + 1;
#X floatatom 49 118 5 0 0 0 - - -, f 5;
#X obj 49 31 tgl 15 0 empty empty empty 17 7 0 10 -262144 -1 -1 1 1
;
#X floatatom 402 218 5 0 0 0 - - -, f 5;
#X obj 168 177 sel 1;
#X obj 126 176 metro;
#X obj 152 307 % 16;
#X obj 150 28 tgl 15 0 empty pause_drums empty 17 7 0 10 -262144 -1
-1 0 1;
#X floatatom 151 74 5 0 0 0 - - -, f 5;
#X obj 151 96 sel 1;
#X msg 120 130 0;
#X obj 150 51 ==;
#X msg 224 96 1;
#X msg 155 133 0;
#X msg 182 132 0;
#X obj 287 56 loadbang;
#X msg 287 85 1000;
#X floatatom 401 40 5 0 0 0 - bpm_manual -, f 5;
#X msg 351 74 60000;
#X obj 375 116 /;
#X obj 400 66 t b f;
#X floatatom 374 137 5 0 0 0 - - -, f 5;
#X obj 455 272 sel 0 1 2 3 4 5 6 7 8 9 10 11 12 13 14 15;
#N canvas 0 0 665 688 drumselect 0;
#X obj 215 409 cnv 15 300 102 empty empty Receive\ Outlets 86 -12 0
14 -233017 -66577 0;
#X obj 38 17 inlet;
#X obj 55 114 tgl 15 0 empty bang_1_1 empty 17 7 0 10 -262144 -1 -1
0 1;
#X obj 40 134 i;
#X obj 230 16 inlet;
#X obj 427 16 inlet;
#X obj 609 16 inlet;
#X obj 804 16 inlet;
#X obj 983 16 inlet;
#X obj 1176 15 inlet;
#X obj 1393 16 inlet;
#X obj 1557 16 inlet;
#X obj 1769 16 inlet;
#X obj 40 179 bng 15 250 50 0 empty empty empty 17 7 0 10 -262144 -1
-1;
#X obj 61 179 bng 15 250 50 0 empty empty empty 17 7 0 10 -262144 -1
-1;
#X obj 83 179 bng 15 250 50 0 empty empty empty 17 7 0 10 -262144 -1
-1;
#X obj 105 179 bng 15 250 50 0 empty empty empty 17 7 0 10 -262144
-1 -1;
#X obj 40 158 select 1 2 3 4, f 15;
#X obj 82 65 tgl 15 0 empty bang_1_2 empty 17 7 0 10 -262144 -1 -1
0 1;
#X obj 67 134 i;
#X obj 82 83 sel 1;
#X msg 82 108 2, f 1;
#X msg 109 108 5, f 1;
#X obj 133 65 tgl 15 0 empty bang_1_3 empty 17 7 0 10 -262144 -1 -1
0 1;
#X obj 118 134 i;
#X obj 133 83 sel 1;
#X msg 160 108 5, f 1;
#X obj 183 65 tgl 15 0 empty bang_1_4 empty 17 7 0 10 -262144 -1 -1
0 1;
#X obj 168 134 i;
#X obj 183 83 sel 1;
#X msg 210 108 5, f 1;
#X msg 133 108 3, f 1;
#X msg 183 108 4, f 1;
#X obj 236 473 outlet;
#X obj 227 346 s hithat;
#X obj 236 422 r hithat;
#X obj 245 114 tgl 15 0 empty bang_2_1 empty 17 7 0 10 -262144 -1 -1
0 1;
#X obj 230 134 i;
#X obj 230 179 bng 15 250 50 0 empty empty empty 17 7 0 10 -262144
-1 -1;
#X obj 251 179 bng 15 250 50 0 empty empty empty 17 7 0 10 -262144
-1 -1;
#X obj 273 179 bng 15 250 50 0 empty empty empty 17 7 0 10 -262144
-1 -1;
#X obj 295 179 bng 15 250 50 0 empty empty empty 17 7 0 10 -262144
-1 -1;
#X obj 230 158 select 1 2 3 4, f 15;
#X obj 272 65 tgl 15 0 empty bang_2_2 empty 17 7 0 10 -262144 -1 -1
0 1;
#X obj 257 134 i;
#X obj 272 83 sel 1;
#X msg 272 108 2, f 1;
#X msg 299 108 5, f 1;
#X obj 323 65 tgl 15 0 empty bang_2_3 empty 17 7 0 10 -262144 -1 -1
0 1;
#X obj 308 134 i;
#X obj 323 83 sel 1;
#X msg 350 108 5, f 1;
#X obj 373 65 tgl 15 0 empty bang_2_4 empty 17 7 0 10 -262144 -1 -1
0 1;
#X obj 358 134 i;
#X obj 373 83 sel 1;
#X msg 400 108 5, f 1;
#X msg 323 108 3, f 1;
#X msg 373 108 4, f 1;
#X obj 337 347 s caixa;
#X obj 316 423 r caixa;
#X obj 316 473 outlet;
#X obj 377 473 outlet;
#X obj 377 423 r bd1;
#X obj 414 347 s bd1;
#X obj 487 347 s bd2;
#X obj 459 474 outlet;
#X obj 459 424 r bd2;
#X obj 435 114 tgl 15 0 empty bang_3_1 empty 17 7 0 10 -262144 -1 -1
0 1;
#X obj 420 134 i;
#X obj 420 179 bng 15 250 50 0 empty empty empty 17 7 0 10 -262144
-1 -1;
#X obj 441 179 bng 15 250 50 0 empty empty empty 17 7 0 10 -262144
-1 -1;
#X obj 463 179 bng 15 250 50 0 empty empty empty 17 7 0 10 -262144
-1 -1;
#X obj 485 179 bng 15 250 50 0 empty empty empty 17 7 0 10 -262144
-1 -1;
#X obj 420 158 select 1 2 3 4, f 15;
#X obj 462 65 tgl 15 0 empty bang_3_2 empty 17 7 0 10 -262144 -1 -1
0 1;
#X obj 447 134 i;
#X obj 462 83 sel 1;
#X msg 462 108 2, f 1;
#X msg 489 108 5, f 1;
#X obj 513 65 tgl 15 0 empty bang_3_3 empty 17 7 0 10 -262144 -1 -1
0 1;
#X obj 498 134 i;
#X obj 513 83 sel 1;
#X msg 540 108 5, f 1;
#X obj 563 65 tgl 15 0 empty bang_3_4 empty 17 7 0 10 -262144 -1 -1
0 1;
#X obj 548 134 i;
#X obj 563 83 sel 1;
#X msg 590 108 5, f 1;
#X msg 513 108 3, f 1;
#X msg 563 108 4, f 1;
#X obj 615 114 tgl 15 0 empty bang_4_1 empty 17 7 0 10 -262144 -1 -1
0 1;
#X obj 600 134 i;
#X obj 600 179 bng 15 250 50 0 empty empty empty 17 7 0 10 -262144
-1 -1;
#X obj 621 179 bng 15 250 50 0 empty empty empty 17 7 0 10 -262144
-1 -1;
#X obj 643 179 bng 15 250 50 0 empty empty empty 17 7 0 10 -262144
-1 -1;
#X obj 665 179 bng 15 250 50 0 empty empty empty 17 7 0 10 -262144
-1 -1;
#X obj 600 158 select 1 2 3 4, f 15;
#X obj 642 65 tgl 15 0 empty bang_4_2 empty 17 7 0 10 -262144 -1 -1
0 1;
#X obj 627 134 i;
#X obj 642 83 sel 1;
#X msg 642 108 2, f 1;
#X msg 669 108 5, f 1;
#X obj 693 65 tgl 15 0 empty bang_4_3 empty 17 7 0 10 -262144 -1 -1
0 1;
#X obj 678 134 i;
#X obj 693 83 sel 1;
#X msg 720 108 5, f 1;
#X obj 743 65 tgl 15 0 empty bang_4_4 empty 17 7 0 10 -262144 -1 -1
0 1;
#X obj 728 134 i;
#X obj 743 83 sel 1;
#X msg 770 108 5, f 1;
#X msg 693 108 3, f 1;
#X msg 743 108 4, f 1;
#X obj 805 114 tgl 15 0 empty bang_5_1 empty 17 7 0 10 -262144 -1 -1
0 1;
#X obj 790 134 i;
#X obj 790 179 bng 15 250 50 0 empty empty empty 17 7 0 10 -262144
-1 -1;
#X obj 811 179 bng 15 250 50 0 empty empty empty 17 7 0 10 -262144
-1 -1;
#X obj 833 179 bng 15 250 50 0 empty empty empty 17 7 0 10 -262144
-1 -1;
#X obj 855 179 bng 15 250 50 0 empty empty empty 17 7 0 10 -262144
-1 -1;
#X obj 790 158 select 1 2 3 4, f 15;
#X obj 832 65 tgl 15 0 empty bang_5_2 empty 17 7 0 10 -262144 -1 -1
0 1;
#X obj 817 134 i;
#X obj 832 83 sel 1;
#X msg 832 108 2, f 1;
#X msg 859 108 5, f 1;
#X obj 883 65 tgl 15 0 empty bang_5_3 empty 17 7 0 10 -262144 -1 -1
0 1;
#X obj 868 134 i;
#X obj 883 83 sel 1;
#X msg 910 108 5, f 1;
#X obj 933 65 tgl 15 0 empty bang_5_4 empty 17 7 0 10 -262144 -1 -1
0 1;
#X obj 918 134 i;
#X obj 933 83 sel 1;
#X msg 960 108 5, f 1;
#X msg 883 108 3, f 1;
#X msg 933 108 4, f 1;
#X obj 984 328 s hithat;
#X obj 1094 329 s caixa;
#X obj 1171 329 s bd1;
#X obj 1242 330 s bd2;
#X obj 995 114 tgl 15 0 empty bang_6_1 empty 17 7 0 10 -262144 -1 -1
0 1;
#X obj 980 134 i;
#X obj 980 179 bng 15 250 50 0 empty empty empty 17 7 0 10 -262144
-1 -1;
#X obj 1001 179 bng 15 250 50 0 empty empty empty 17 7 0 10 -262144
-1 -1;
#X obj 1023 179 bng 15 250 50 0 empty empty empty 17 7 0 10 -262144
-1 -1;
#X obj 1045 179 bng 15 250 50 0 empty empty empty 17 7 0 10 -262144
-1 -1;
#X obj 980 158 select 1 2 3 4, f 15;
#X obj 1022 65 tgl 15 0 empty bang_6_2 empty 17 7 0 10 -262144 -1 -1
0 1;
#X obj 1007 134 i;
#X obj 1022 83 sel 1;
#X msg 1022 108 2, f 1;
#X msg 1049 108 5, f 1;
#X obj 1073 65 tgl 15 0 empty bang_6_3 empty 17 7 0 10 -262144 -1 -1
0 1;
#X obj 1058 134 i;
#X obj 1073 83 sel 1;
#X msg 1100 108 5, f 1;
#X obj 1123 65 tgl 15 0 empty bang_6_4 empty 17 7 0 10 -262144 -1 -1
0 1;
#X obj 1108 134 i;
#X obj 1123 83 sel 1;
#X msg 1150 108 5, f 1;
#X msg 1073 108 3, f 1;
#X msg 1123 108 4, f 1;
#X obj 1195 114 tgl 15 0 empty bang_7_1 empty 17 7 0 10 -262144 -1
-1 0 1;
#X obj 1180 134 i;
#X obj 1180 179 bng 15 250 50 0 empty empty empty 17 7 0 10 -262144
-1 -1;
#X obj 1201 179 bng 15 250 50 0 empty empty empty 17 7 0 10 -262144
-1 -1;
#X obj 1223 179 bng 15 250 50 0 empty empty empty 17 7 0 10 -262144
-1 -1;
#X obj 1245 179 bng 15 250 50 0 empty empty empty 17 7 0 10 -262144
-1 -1;
#X obj 1180 158 select 1 2 3 4, f 15;
#X obj 1222 65 tgl 15 0 empty bang_7_2 empty 17 7 0 10 -262144 -1 -1
0 1;
#X obj 1207 134 i;
#X obj 1222 83 sel 1;
#X msg 1222 108 2, f 1;
#X msg 1249 108 5, f 1;
#X obj 1273 65 tgl 15 0 empty bang_7_3 empty 17 7 0 10 -262144 -1 -1
0 1;
#X obj 1258 134 i;
#X obj 1273 83 sel 1;
#X msg 1300 108 5, f 1;
#X obj 1323 65 tgl 15 0 empty bang_7_4 empty 17 7 0 10 -262144 -1 -1
0 1;
#X obj 1308 134 i;
#X obj 1323 83 sel 1;
#X msg 1350 108 5, f 1;
#X msg 1273 108 3, f 1;
#X msg 1323 108 4, f 1;
#X obj 1385 114 tgl 15 0 empty bang_8_1 empty 17 7 0 10 -262144 -1
-1 0 1;
#X obj 1370 134 i;
#X obj 1370 179 bng 15 250 50 0 empty empty empty 17 7 0 10 -262144
-1 -1;
#X obj 1391 179 bng 15 250 50 0 empty empty empty 17 7 0 10 -262144
-1 -1;
#X obj 1413 179 bng 15 250 50 0 empty empty empty 17 7 0 10 -262144
-1 -1;
#X obj 1435 179 bng 15 250 50 0 empty empty empty 17 7 0 10 -262144
-1 -1;
#X obj 1370 158 select 1 2 3 4, f 15;
#X obj 1412 65 tgl 15 0 empty bang_8_2 empty 17 7 0 10 -262144 -1 -1
0 1;
#X obj 1397 134 i;
#X obj 1412 83 sel 1;
#X msg 1412 108 2, f 1;
#X msg 1439 108 5, f 1;
#X obj 1463 65 tgl 15 0 empty bang_8_3 empty 17 7 0 10 -262144 -1 -1
0 1;
#X obj 1448 134 i;
#X obj 1463 83 sel 1;
#X msg 1490 108 5, f 1;
#X obj 1513 65 tgl 15 0 empty bang_8_4 empty 17 7 0 10 -262144 -1 -1
0 1;
#X obj 1498 134 i;
#X obj 1513 83 sel 1;
#X msg 1540 108 5, f 1;
#X msg 1463 108 3, f 1;
#X msg 1513 108 4, f 1;
#X obj 1754 328 s hithat;
#X obj 1864 329 s caixa;
#X obj 1941 329 s bd1;
#X obj 2012 330 s bd2;
#X obj 1575 114 tgl 15 0 empty bang_9_1 empty 17 7 0 10 -262144 -1
-1 0 1;
#X obj 1560 134 i;
#X obj 1560 179 bng 15 250 50 0 empty empty empty 17 7 0 10 -262144
-1 -1;
#X obj 1581 179 bng 15 250 50 0 empty empty empty 17 7 0 10 -262144
-1 -1;
#X obj 1603 179 bng 15 250 50 0 empty empty empty 17 7 0 10 -262144
-1 -1;
#X obj 1625 179 bng 15 250 50 0 empty empty empty 17 7 0 10 -262144
-1 -1;
#X obj 1560 158 select 1 2 3 4, f 15;
#X obj 1602 65 tgl 15 0 empty bang_9_2 empty 17 7 0 10 -262144 -1 -1
0 1;
#X obj 1587 134 i;
#X obj 1602 83 sel 1;
#X msg 1602 108 2, f 1;
#X msg 1629 108 5, f 1;
#X obj 1653 65 tgl 15 0 empty bang_9_3 empty 17 7 0 10 -262144 -1 -1
0 1;
#X obj 1638 134 i;
#X obj 1653 83 sel 1;
#X msg 1680 108 5, f 1;
#X obj 1703 65 tgl 15 0 empty bang_9_4 empty 17 7 0 10 -262144 -1 -1
0 1;
#X obj 1688 134 i;
#X obj 1703 83 sel 1;
#X msg 1730 108 5, f 1;
#X msg 1653 108 3, f 1;
#X msg 1703 108 4, f 1;
#X obj 1765 114 tgl 15 0 empty bang_10_1 empty 17 7 0 10 -262144 -1
-1 0 1;
#X obj 1750 134 i;
#X obj 1750 179 bng 15 250 50 0 empty empty empty 17 7 0 10 -262144
-1 -1;
#X obj 1771 179 bng 15 250 50 0 empty empty empty 17 7 0 10 -262144
-1 -1;
#X obj 1793 179 bng 15 250 50 0 empty empty empty 17 7 0 10 -262144
-1 -1;
#X obj 1815 179 bng 15 250 50 0 empty empty empty 17 7 0 10 -262144
-1 -1;
#X obj 1750 158 select 1 2 3 4, f 15;
#X obj 1792 65 tgl 15 0 empty bang_10_2 empty 17 7 0 10 -262144 -1
-1 0 1;
#X obj 1777 134 i;
#X obj 1792 83 sel 1;
#X msg 1792 108 2, f 1;
#X msg 1819 108 5, f 1;
#X obj 1843 65 tgl 15 0 empty bang_10_3 empty 17 7 0 10 -262144 -1
-1 0 1;
#X obj 1828 134 i;
#X obj 1843 83 sel 1;
#X msg 1870 108 5, f 1;
#X obj 1893 65 tgl 15 0 empty bang_10_4 empty 17 7 0 10 -262144 -1
-1 0 1;
#X obj 1878 134 i;
#X obj 1893 83 sel 1;
#X msg 1920 108 5, f 1;
#X msg 1843 108 3, f 1;
#X msg 1893 108 4, f 1;
#X obj 1987 16 inlet;
#X obj 2199 16 inlet;
#X obj 2005 114 tgl 15 0 empty bang_11_1 empty 17 7 0 10 -262144 -1
-1 0 1;
#X obj 1990 134 i;
#X obj 1990 179 bng 15 250 50 0 empty empty empty 17 7 0 10 -262144
-1 -1;
#X obj 2011 179 bng 15 250 50 0 empty empty empty 17 7 0 10 -262144
-1 -1;
#X obj 2033 179 bng 15 250 50 0 empty empty empty 17 7 0 10 -262144
-1 -1;
#X obj 2055 179 bng 15 250 50 0 empty empty empty 17 7 0 10 -262144
-1 -1;
#X obj 1990 158 select 1 2 3 4, f 15;
#X obj 2032 65 tgl 15 0 empty bang_11_2 empty 17 7 0 10 -262144 -1
-1 0 1;
#X obj 2017 134 i;
#X obj 2032 83 sel 1;
#X msg 2032 108 2, f 1;
#X msg 2059 108 5, f 1;
#X obj 2083 65 tgl 15 0 empty bang_11_3 empty 17 7 0 10 -262144 -1
-1 0 1;
#X obj 2068 134 i;
#X obj 2083 83 sel 1;
#X msg 2110 108 5, f 1;
#X obj 2133 65 tgl 15 0 empty bang_11_4 empty 17 7 0 10 -262144 -1
-1 0 1;
#X obj 2118 134 i;
#X obj 2133 83 sel 1;
#X msg 2160 108 5, f 1;
#X msg 2083 108 3, f 1;
#X msg 2133 108 4, f 1;
#X obj 2195 114 tgl 15 0 empty bang_12_1 empty 17 7 0 10 -262144 -1
-1 0 1;
#X obj 2180 134 i;
#X obj 2180 179 bng 15 250 50 0 empty empty empty 17 7 0 10 -262144
-1 -1;
#X obj 2201 179 bng 15 250 50 0 empty empty empty 17 7 0 10 -262144
-1 -1;
#X obj 2223 179 bng 15 250 50 0 empty empty empty 17 7 0 10 -262144
-1 -1;
#X obj 2245 179 bng 15 250 50 0 empty empty empty 17 7 0 10 -262144
-1 -1;
#X obj 2180 158 select 1 2 3 4, f 15;
#X obj 2222 65 tgl 15 0 empty bang_12_2 empty 17 7 0 10 -262144 -1
-1 0 1;
#X obj 2207 134 i;
#X obj 2222 83 sel 1;
#X msg 2222 108 2, f 1;
#X msg 2249 108 5, f 1;
#X obj 2273 65 tgl 15 0 empty bang_12_3 empty 17 7 0 10 -262144 -1
-1 0 1;
#X obj 2258 134 i;
#X obj 2273 83 sel 1;
#X msg 2300 108 5, f 1;
#X obj 2323 65 tgl 15 0 empty bang_12_4 empty 17 7 0 10 -262144 -1
-1 0 1;
#X obj 2308 134 i;
#X obj 2323 83 sel 1;
#X msg 2350 108 5, f 1;
#X msg 2273 108 3, f 1;
#X msg 2323 108 4, f 1;
#X obj 2397 16 inlet;
#X obj 2609 16 inlet;
#X obj 2594 328 s hithat;
#X obj 2704 329 s caixa;
#X obj 2781 329 s bd1;
#X obj 2852 330 s bd2;
#X obj 2415 114 tgl 15 0 empty bang_13_1 empty 17 7 0 10 -262144 -1
-1 0 1;
#X obj 2400 134 i;
#X obj 2400 179 bng 15 250 50 0 empty empty empty 17 7 0 10 -262144
-1 -1;
#X obj 2421 179 bng 15 250 50 0 empty empty empty 17 7 0 10 -262144
-1 -1;
#X obj 2443 179 bng 15 250 50 0 empty empty empty 17 7 0 10 -262144
-1 -1;
#X obj 2465 179 bng 15 250 50 0 empty empty empty 17 7 0 10 -262144
-1 -1;
#X obj 2400 158 select 1 2 3 4, f 15;
#X obj 2442 65 tgl 15 0 empty bang_13_2 empty 17 7 0 10 -262144 -1
-1 0 1;
#X obj 2427 134 i;
#X obj 2442 83 sel 1;
#X msg 2442 108 2, f 1;
#X msg 2469 108 5, f 1;
#X obj 2493 65 tgl 15 0 empty bang_13_3 empty 17 7 0 10 -262144 -1
-1 0 1;
#X obj 2478 134 i;
#X obj 2493 83 sel 1;
#X msg 2520 108 5, f 1;
#X obj 2543 65 tgl 15 0 empty bang_13_4 empty 17 7 0 10 -262144 -1
-1 0 1;
#X obj 2528 134 i;
#X obj 2543 83 sel 1;
#X msg 2570 108 5, f 1;
#X msg 2493 108 3, f 1;
#X msg 2543 108 4, f 1;
#X obj 2605 114 tgl 15 0 empty bang_14_1 empty 17 7 0 10 -262144 -1
-1 0 1;
#X obj 2590 134 i;
#X obj 2590 179 bng 15 250 50 0 empty empty empty 17 7 0 10 -262144
-1 -1;
#X obj 2611 179 bng 15 250 50 0 empty empty empty 17 7 0 10 -262144
-1 -1;
#X obj 2633 179 bng 15 250 50 0 empty empty empty 17 7 0 10 -262144
-1 -1;
#X obj 2655 179 bng 15 250 50 0 empty empty empty 17 7 0 10 -262144
-1 -1;
#X obj 2590 158 select 1 2 3 4, f 15;
#X obj 2632 65 tgl 15 0 empty bang_14_2 empty 17 7 0 10 -262144 -1
-1 0 1;
#X obj 2617 134 i;
#X obj 2632 83 sel 1;
#X msg 2632 108 2, f 1;
#X msg 2659 108 5, f 1;
#X obj 2683 65 tgl 15 0 empty bang_14_3 empty 17 7 0 10 -262144 -1
-1 0 1;
#X obj 2668 134 i;
#X obj 2683 83 sel 1;
#X msg 2710 108 5, f 1;
#X obj 2733 65 tgl 15 0 empty bang_14_4 empty 17 7 0 10 -262144 -1
-1 0 1;
#X obj 2718 134 i;
#X obj 2733 83 sel 1;
#X msg 2760 108 5, f 1;
#X msg 2683 108 3, f 1;
#X msg 2733 108 4, f 1;
#X obj 2827 16 inlet;
#X obj 3039 16 inlet;
#X obj 2845 114 tgl 15 0 empty bang_15_1 empty 17 7 0 10 -262144 -1
-1 0 1;
#X obj 2830 134 i;
#X obj 2830 179 bng 15 250 50 0 empty empty empty 17 7 0 10 -262144
-1 -1;
#X obj 2851 179 bng 15 250 50 0 empty empty empty 17 7 0 10 -262144
-1 -1;
#X obj 2873 179 bng 15 250 50 0 empty empty empty 17 7 0 10 -262144
-1 -1;
#X obj 2895 179 bng 15 250 50 0 empty empty empty 17 7 0 10 -262144
-1 -1;
#X obj 2830 158 select 1 2 3 4, f 15;
#X obj 2872 65 tgl 15 0 empty bang_15_2 empty 17 7 0 10 -262144 -1
-1 0 1;
#X obj 2857 134 i;
#X obj 2872 83 sel 1;
#X msg 2872 108 2, f 1;
#X msg 2899 108 5, f 1;
#X obj 2923 65 tgl 15 0 empty bang_15_3 empty 17 7 0 10 -262144 -1
-1 0 1;
#X obj 2908 134 i;
#X obj 2923 83 sel 1;
#X msg 2950 108 5, f 1;
#X obj 2973 65 tgl 15 0 empty bang_15_4 empty 17 7 0 10 -262144 -1
-1 0 1;
#X obj 2958 134 i;
#X obj 2973 83 sel 1;
#X msg 3000 108 5, f 1;
#X msg 2923 108 3, f 1;
#X msg 2973 108 4, f 1;
#X obj 3035 114 tgl 15 0 empty bang_16_1 empty 17 7 0 10 -262144 -1
-1 0 1;
#X obj 3020 134 i;
#X obj 3020 179 bng 15 250 50 0 empty empty empty 17 7 0 10 -262144
-1 -1;
#X obj 3041 179 bng 15 250 50 0 empty empty empty 17 7 0 10 -262144
-1 -1;
#X obj 3063 179 bng 15 250 50 0 empty empty empty 17 7 0 10 -262144
-1 -1;
#X obj 3085 179 bng 15 250 50 0 empty empty empty 17 7 0 10 -262144
-1 -1;
#X obj 3020 158 select 1 2 3 4, f 15;
#X obj 3062 65 tgl 15 0 empty bang_16_2 empty 17 7 0 10 -262144 -1
-1 0 1;
#X obj 3047 134 i;
#X obj 3062 83 sel 1;
#X msg 3062 108 2, f 1;
#X msg 3089 108 5, f 1;
#X obj 3113 65 tgl 15 0 empty bang_16_3 empty 17 7 0 10 -262144 -1
-1 0 1;
#X obj 3098 134 i;
#X obj 3113 83 sel 1;
#X msg 3140 108 5, f 1;
#X obj 3163 65 tgl 15 0 empty bang_16_4 empty 17 7 0 10 -262144 -1
-1 0 1;
#X obj 3148 134 i;
#X obj 3163 83 sel 1;
#X msg 3190 108 5, f 1;
#X msg 3113 108 3, f 1;
#X msg 3163 108 4, f 1;
#X connect 1 0 3 0;
#X connect 1 0 19 0;
#X connect 1 0 24 0;
#X connect 1 0 28 0;
#X connect 2 0 3 1;
#X connect 3 0 17 0;
#X connect 4 0 37 0;
#X connect 4 0 44 0;
#X connect 4 0 49 0;
#X connect 4 0 53 0;
#X connect 5 0 68 0;
#X connect 5 0 75 0;
#X connect 5 0 80 0;
#X connect 5 0 84 0;
#X connect 6 0 90 0;
#X connect 6 0 97 0;
#X connect 6 0 102 0;
#X connect 6 0 106 0;
#X connect 7 0 112 0;
#X connect 7 0 119 0;
#X connect 7 0 124 0;
#X connect 7 0 128 0;
#X connect 8 0 138 0;
#X connect 8 0 145 0;
#X connect 8 0 150 0;
#X connect 8 0 154 0;
#X connect 9 0 160 0;
#X connect 9 0 167 0;
#X connect 9 0 172 0;
#X connect 9 0 176 0;
#X connect 10 0 182 0;
#X connect 10 0 189 0;
#X connect 10 0 194 0;
#X connect 10 0 198 0;
#X connect 11 0 208 0;
#X connect 11 0 215 0;
#X connect 11 0 220 0;
#X connect 11 0 224 0;
#X connect 12 0 230 0;
#X connect 12 0 237 0;
#X connect 12 0 242 0;
#X connect 12 0 246 0;
#X connect 13 0 34 0;
#X connect 14 0 58 0;
#X connect 15 0 63 0;
#X connect 16 0 64 0;
#X connect 17 0 13 0;
#X connect 17 1 14 0;
#X connect 17 2 15 0;
#X connect 17 3 16 0;
#X connect 18 0 20 0;
#X connect 19 0 17 0;
#X connect 20 0 21 0;
#X connect 20 1 22 0;
#X connect 21 0 19 1;
#X connect 22 0 19 1;
#X connect 23 0 25 0;
#X connect 24 0 17 0;
#X connect 25 0 31 0;
#X connect 25 1 26 0;
#X connect 26 0 24 1;
#X connect 27 0 29 0;
#X connect 28 0 17 0;
#X connect 29 0 32 0;
#X connect 29 1 30 0;
#X connect 30 0 28 1;
#X connect 31 0 24 1;
#X connect 32 0 28 1;
#X connect 35 0 33 0;
#X connect 36 0 37 1;
#X connect 37 0 42 0;
#X connect 38 0 34 0;
#X connect 39 0 58 0;
#X connect 40 0 63 0;
#X connect 41 0 64 0;
#X connect 42 0 38 0;
#X connect 42 1 39 0;
#X connect 42 2 40 0;
#X connect 42 3 41 0;
#X connect 43 0 45 0;
#X connect 44 0 42 0;
#X connect 45 0 46 0;
#X connect 45 1 47 0;
#X connect 46 0 44 1;
#X connect 47 0 44 1;
#X connect 48 0 50 0;
#X connect 49 0 42 0;
#X connect 50 0 56 0;
#X connect 50 1 51 0;
#X connect 51 0 49 1;
#X connect 52 0 54 0;
#X connect 53 0 42 0;
#X connect 54 0 57 0;
#X connect 54 1 55 0;
#X connect 55 0 53 1;
#X connect 56 0 49 1;
#X connect 57 0 53 1;
#X connect 59 0 60 0;
#X connect 62 0 61 0;
#X connect 66 0 65 0;
#X connect 67 0 68 1;
#X connect 68 0 73 0;
#X connect 69 0 34 0;
#X connect 70 0 58 0;
#X connect 71 0 63 0;
#X connect 72 0 64 0;
#X connect 73 0 69 0;
#X connect 73 1 70 0;
#X connect 73 2 71 0;
#X connect 73 3 72 0;
#X connect 74 0 76 0;
#X connect 75 0 73 0;
#X connect 76 0 77 0;
#X connect 76 1 78 0;
#X connect 77 0 75 1;
#X connect 78 0 75 1;
#X connect 79 0 81 0;
#X connect 80 0 73 0;
#X connect 81 0 87 0;
#X connect 81 1 82 0;
#X connect 82 0 80 1;
#X connect 83 0 85 0;
#X connect 84 0 73 0;
#X connect 85 0 88 0;
#X connect 85 1 86 0;
#X connect 86 0 84 1;
#X connect 87 0 80 1;
#X connect 88 0 84 1;
#X connect 89 0 90 1;
#X connect 90 0 95 0;
#X connect 91 0 34 0;
#X connect 92 0 58 0;
#X connect 93 0 63 0;
#X connect 94 0 64 0;
#X connect 95 0 91 0;
#X connect 95 1 92 0;
#X connect 95 2 93 0;
#X connect 95 3 94 0;
#X connect 96 0 98 0;
#X connect 97 0 95 0;
#X connect 98 0 99 0;
#X connect 98 1 100 0;
#X connect 99 0 97 1;
#X connect 100 0 97 1;
#X connect 101 0 103 0;
#X connect 102 0 95 0;
#X connect 103 0 109 0;
#X connect 103 1 104 0;
#X connect 104 0 102 1;
#X connect 105 0 107 0;
#X connect 106 0 95 0;
#X connect 107 0 110 0;
#X connect 107 1 108 0;
#X connect 108 0 106 1;
#X connect 109 0 102 1;
#X connect 110 0 106 1;
#X connect 111 0 112 1;
#X connect 112 0 117 0;
#X connect 113 0 133 0;
#X connect 114 0 134 0;
#X connect 115 0 135 0;
#X connect 116 0 136 0;
#X connect 117 0 113 0;
#X connect 117 1 114 0;
#X connect 117 2 115 0;
#X connect 117 3 116 0;
#X connect 118 0 120 0;
#X connect 119 0 117 0;
#X connect 120 0 121 0;
#X connect 120 1 122 0;
#X connect 121 0 119 1;
#X connect 122 0 119 1;
#X connect 123 0 125 0;
#X connect 124 0 117 0;
#X connect 125 0 131 0;
#X connect 125 1 126 0;
#X connect 126 0 124 1;
#X connect 127 0 129 0;
#X connect 128 0 117 0;
#X connect 129 0 132 0;
#X connect 129 1 130 0;
#X connect 130 0 128 1;
#X connect 131 0 124 1;
#X connect 132 0 128 1;
#X connect 137 0 138 1;
#X connect 138 0 143 0;
#X connect 139 0 133 0;
#X connect 140 0 134 0;
#X connect 141 0 135 0;
#X connect 142 0 136 0;
#X connect 143 0 139 0;
#X connect 143 1 140 0;
#X connect 143 2 141 0;
#X connect 143 3 142 0;
#X connect 144 0 146 0;
#X connect 145 0 143 0;
#X connect 146 0 147 0;
#X connect 146 1 148 0;
#X connect 147 0 145 1;
#X connect 148 0 145 1;
#X connect 149 0 151 0;
#X connect 150 0 143 0;
#X connect 151 0 157 0;
#X connect 151 1 152 0;
#X connect 152 0 150 1;
#X connect 153 0 155 0;
#X connect 154 0 143 0;
#X connect 155 0 158 0;
#X connect 155 1 156 0;
#X connect 156 0 154 1;
#X connect 157 0 150 1;
#X connect 158 0 154 1;
#X connect 159 0 160 1;
#X connect 160 0 165 0;
#X connect 161 0 133 0;
#X connect 162 0 134 0;
#X connect 163 0 135 0;
#X connect 164 0 136 0;
#X connect 165 0 161 0;
#X connect 165 1 162 0;
#X connect 165 2 163 0;
#X connect 165 3 164 0;
#X connect 166 0 168 0;
#X connect 167 0 165 0;
#X connect 168 0 169 0;
#X connect 168 1 170 0;
#X connect 169 0 167 1;
#X connect 170 0 167 1;
#X connect 171 0 173 0;
#X connect 172 0 165 0;
#X connect 173 0 179 0;
#X connect 173 1 174 0;
#X connect 174 0 172 1;
#X connect 175 0 177 0;
#X connect 176 0 165 0;
#X connect 177 0 180 0;
#X connect 177 1 178 0;
#X connect 178 0 176 1;
#X connect 179 0 172 1;
#X connect 180 0 176 1;
#X connect 181 0 182 1;
#X connect 182 0 187 0;
#X connect 183 0 133 0;
#X connect 184 0 134 0;
#X connect 185 0 135 0;
#X connect 186 0 136 0;
#X connect 187 0 183 0;
#X connect 187 1 184 0;
#X connect 187 2 185 0;
#X connect 187 3 186 0;
#X connect 188 0 190 0;
#X connect 189 0 187 0;
#X connect 190 0 191 0;
#X connect 190 1 192 0;
#X connect 191 0 189 1;
#X connect 192 0 189 1;
#X connect 193 0 195 0;
#X connect 194 0 187 0;
#X connect 195 0 201 0;
#X connect 195 1 196 0;
#X connect 196 0 194 1;
#X connect 197 0 199 0;
#X connect 198 0 187 0;
#X connect 199 0 202 0;
#X connect 199 1 200 0;
#X connect 200 0 198 1;
#X connect 201 0 194 1;
#X connect 202 0 198 1;
#X connect 207 0 208 1;
#X connect 208 0 213 0;
#X connect 209 0 203 0;
#X connect 210 0 204 0;
#X connect 211 0 205 0;
#X connect 212 0 206 0;
#X connect 213 0 209 0;
#X connect 213 1 210 0;
#X connect 213 2 211 0;
#X connect 213 3 212 0;
#X connect 214 0 216 0;
#X connect 215 0 213 0;
#X connect 216 0 217 0;
#X connect 216 1 218 0;
#X connect 217 0 215 1;
#X connect 218 0 215 1;
#X connect 219 0 221 0;
#X connect 220 0 213 0;
#X connect 221 0 227 0;
#X connect 221 1 222 0;
#X connect 222 0 220 1;
#X connect 223 0 225 0;
#X connect 224 0 213 0;
#X connect 225 0 228 0;
#X connect 225 1 226 0;
#X connect 226 0 224 1;
#X connect 227 0 220 1;
#X connect 228 0 224 1;
#X connect 229 0 230 1;
#X connect 230 0 235 0;
#X connect 231 0 203 0;
#X connect 232 0 204 0;
#X connect 233 0 205 0;
#X connect 234 0 206 0;
#X connect 235 0 231 0;
#X connect 235 1 232 0;
#X connect 235 2 233 0;
#X connect 235 3 234 0;
#X connect 236 0 238 0;
#X connect 237 0 235 0;
#X connect 238 0 239 0;
#X connect 238 1 240 0;
#X connect 239 0 237 1;
#X connect 240 0 237 1;
#X connect 241 0 243 0;
#X connect 242 0 235 0;
#X connect 243 0 249 0;
#X connect 243 1 244 0;
#X connect 244 0 242 1;
#X connect 245 0 247 0;
#X connect 246 0 235 0;
#X connect 247 0 250 0;
#X connect 247 1 248 0;
#X connect 248 0 246 1;
#X connect 249 0 242 1;
#X connect 250 0 246 1;
#X connect 251 0 254 0;
#X connect 251 0 261 0;
#X connect 251 0 266 0;
#X connect 251 0 270 0;
#X connect 252 0 276 0;
#X connect 252 0 283 0;
#X connect 252 0 288 0;
#X connect 252 0 292 0;
#X connect 253 0 254 1;
#X connect 254 0 259 0;
#X connect 255 0 203 0;
#X connect 256 0 204 0;
#X connect 257 0 205 0;
#X connect 258 0 206 0;
#X connect 259 0 255 0;
#X connect 259 1 256 0;
#X connect 259 2 257 0;
#X connect 259 3 258 0;
#X connect 260 0 262 0;
#X connect 261 0 259 0;
#X connect 262 0 263 0;
#X connect 262 1 264 0;
#X connect 263 0 261 1;
#X connect 264 0 261 1;
#X connect 265 0 267 0;
#X connect 266 0 259 0;
#X connect 267 0 273 0;
#X connect 267 1 268 0;
#X connect 268 0 266 1;
#X connect 269 0 271 0;
#X connect 270 0 259 0;
#X connect 271 0 274 0;
#X connect 271 1 272 0;
#X connect 272 0 270 1;
#X connect 273 0 266 1;
#X connect 274 0 270 1;
#X connect 275 0 276 1;
#X connect 276 0 281 0;
#X connect 277 0 203 0;
#X connect 278 0 204 0;
#X connect 279 0 205 0;
#X connect 280 0 206 0;
#X connect 281 0 277 0;
#X connect 281 1 278 0;
#X connect 281 2 279 0;
#X connect 281 3 280 0;
#X connect 282 0 284 0;
#X connect 283 0 281 0;
#X connect 284 0 285 0;
#X connect 284 1 286 0;
#X connect 285 0 283 1;
#X connect 286 0 283 1;
#X connect 287 0 289 0;
#X connect 288 0 281 0;
#X connect 289 0 295 0;
#X connect 289 1 290 0;
#X connect 290 0 288 1;
#X connect 291 0 293 0;
#X connect 292 0 281 0;
#X connect 293 0 296 0;
#X connect 293 1 294 0;
#X connect 294 0 292 1;
#X connect 295 0 288 1;
#X connect 296 0 292 1;
#X connect 297 0 304 0;
#X connect 297 0 311 0;
#X connect 297 0 316 0;
#X connect 297 0 320 0;
#X connect 298 0 326 0;
#X connect 298 0 333 0;
#X connect 298 0 338 0;
#X connect 298 0 342 0;
#X connect 303 0 304 1;
#X connect 304 0 309 0;
#X connect 305 0 299 0;
#X connect 306 0 300 0;
#X connect 307 0 301 0;
#X connect 308 0 302 0;
#X connect 309 0 305 0;
#X connect 309 1 306 0;
#X connect 309 2 307 0;
#X connect 309 3 308 0;
#X connect 310 0 312 0;
#X connect 311 0 309 0;
#X connect 312 0 313 0;
#X connect 312 1 314 0;
#X connect 313 0 311 1;
#X connect 314 0 311 1;
#X connect 315 0 317 0;
#X connect 316 0 309 0;
#X connect 317 0 323 0;
#X connect 317 1 318 0;
#X connect 318 0 316 1;
#X connect 319 0 321 0;
#X connect 320 0 309 0;
#X connect 321 0 324 0;
#X connect 321 1 322 0;
#X connect 322 0 320 1;
#X connect 323 0 316 1;
#X connect 324 0 320 1;
#X connect 325 0 326 1;
#X connect 326 0 331 0;
#X connect 327 0 299 0;
#X connect 328 0 300 0;
#X connect 329 0 301 0;
#X connect 330 0 302 0;
#X connect 331 0 327 0;
#X connect 331 1 328 0;
#X connect 331 2 329 0;
#X connect 331 3 330 0;
#X connect 332 0 334 0;
#X connect 333 0 331 0;
#X connect 334 0 335 0;
#X connect 334 1 336 0;
#X connect 335 0 333 1;
#X connect 336 0 333 1;
#X connect 337 0 339 0;
#X connect 338 0 331 0;
#X connect 339 0 345 0;
#X connect 339 1 340 0;
#X connect 340 0 338 1;
#X connect 341 0 343 0;
#X connect 342 0 331 0;
#X connect 343 0 346 0;
#X connect 343 1 344 0;
#X connect 344 0 342 1;
#X connect 345 0 338 1;
#X connect 346 0 342 1;
#X connect 347 0 350 0;
#X connect 347 0 357 0;
#X connect 347 0 362 0;
#X connect 347 0 366 0;
#X connect 348 0 372 0;
#X connect 348 0 379 0;
#X connect 348 0 384 0;
#X connect 348 0 388 0;
#X connect 349 0 350 1;
#X connect 350 0 355 0;
#X connect 351 0 299 0;
#X connect 352 0 300 0;
#X connect 353 0 301 0;
#X connect 354 0 302 0;
#X connect 355 0 351 0;
#X connect 355 1 352 0;
#X connect 355 2 353 0;
#X connect 355 3 354 0;
#X connect 356 0 358 0;
#X connect 357 0 355 0;
#X connect 358 0 359 0;
#X connect 358 1 360 0;
#X connect 359 0 357 1;
#X connect 360 0 357 1;
#X connect 361 0 363 0;
#X connect 362 0 355 0;
#X connect 363 0 369 0;
#X connect 363 1 364 0;
#X connect 364 0 362 1;
#X connect 365 0 367 0;
#X connect 366 0 355 0;
#X connect 367 0 370 0;
#X connect 367 1 368 0;
#X connect 368 0 366 1;
#X connect 369 0 362 1;
#X connect 370 0 366 1;
#X connect 371 0 372 1;
#X connect 372 0 377 0;
#X connect 373 0 299 0;
#X connect 374 0 300 0;
#X connect 375 0 301 0;
#X connect 376 0 302 0;
#X connect 377 0 373 0;
#X connect 377 1 374 0;
#X connect 377 2 375 0;
#X connect 377 3 376 0;
#X connect 378 0 380 0;
#X connect 379 0 377 0;
#X connect 380 0 381 0;
#X connect 380 1 382 0;
#X connect 381 0 379 1;
#X connect 382 0 379 1;
#X connect 383 0 385 0;
#X connect 384 0 377 0;
#X connect 385 0 391 0;
#X connect 385 1 386 0;
#X connect 386 0 384 1;
#X connect 387 0 389 0;
#X connect 388 0 377 0;
#X connect 389 0 392 0;
#X connect 389 1 390 0;
#X connect 390 0 388 1;
#X connect 391 0 384 1;
#X connect 392 0 388 1;
#X restore 467 320 pd drumselect;
#X obj 455 297 bng 15 250 50 0 empty empty empty 17 7 0 10 -262144
-1 -1;
#X obj 470 297 bng 15 250 50 0 empty empty empty 17 7 0 10 -262144
-1 -1;
#X obj 486 297 bng 15 250 50 0 empty empty empty 17 7 0 10 -262144
-1 -1;
#X obj 501 297 bng 15 250 50 0 empty empty empty 17 7 0 10 -262144
-1 -1;
#X obj 517 297 bng 15 250 50 0 empty empty empty 17 7 0 10 -262144
-1 -1;
#X obj 532 297 bng 15 250 50 0 empty empty empty 17 7 0 10 -262144
-1 -1;
#X obj 548 297 bng 15 250 50 0 empty empty empty 17 7 0 10 -262144
-1 -1;
#X obj 563 297 bng 15 250 50 0 empty empty empty 17 7 0 10 -262144
-1 -1;
#X obj 579 297 bng 15 250 50 0 empty empty empty 17 7 0 10 -262144
-1 -1;
#X obj 594 297 bng 15 250 50 0 empty empty empty 17 7 0 10 -262144
-1 -1;
#X obj 610 297 bng 15 250 50 0 empty empty empty 17 7 0 10 -262144
-1 -1;
#X obj 625 297 bng 15 250 50 0 empty empty empty 17 7 0 10 -262144
-1 -1;
#X obj 641 297 bng 15 250 50 0 empty empty empty 17 7 0 10 -262144
-1 -1;
#X obj 656 297 bng 15 250 50 0 empty empty empty 17 7 0 10 -262144
-1 -1;
#X obj 672 297 bng 15 250 50 0 empty empty empty 17 7 0 10 -262144
-1 -1;
#X obj 687 297 bng 15 250 50 0 empty empty empty 17 7 0 10 -262144
-1 -1;
#N canvas 0 0 450 300 hithat 0;
#X obj 160 61 noise~;
#X obj 145 25 ead~ 10 150;
#X obj 145 142 bp~ 10000 40;
#X obj 145 3 inlet;
#X obj 145 219 dac~;
#X floatatom 237 167 5 0 0 0 - - -, f 5;
#X obj 145 81 *~;
#X obj 237 142 r drum_vol;
#X obj 145 190 *~;
#X connect 0 0 6 1;
#X connect 1 0 6 0;
#X connect 2 0 8 0;
#X connect 3 0 1 0;
#X connect 5 0 8 1;
#X connect 6 0 2 0;
#X connect 7 0 5 0;
#X connect 8 0 4 0;
#X connect 8 0 4 1;
#X restore 467 375 pd hithat;
#X obj 467 348 bng 15 250 50 0 empty empty empty 17 7 0 10 -262144
-1 -1;
#N canvas 0 0 679 688 caixa 0;
#X obj 113 171 *~;
#X obj 113 74 ead~ 10 200;
#X obj 175 245 *~ 1.5;
#X obj 175 225 bp~ 2000 0.75;
#X obj 113 225 bp~ 250 3;
#X obj 113 265 +~;
#X obj 113 245 *~ 5;
#X obj 128 151 noise~;
#X obj 113 31 inlet;
#X obj 113 340 dac~;
#X floatatom 295 239 5 0 0 0 - - -, f 5;
#X obj 295 214 r drum_vol;
#X obj 113 292 *~;
#X floatatom 295 301 5 0 0 0 - - -, f 5;
#X obj 295 265 / 2.5;
#X connect 0 0 3 0;
#X connect 0 0 4 0;
#X connect 1 0 0 0;
#X connect 2 0 5 1;
#X connect 3 0 2 0;
#X connect 4 0 6 0;
#X connect 5 0 12 0;
#X connect 6 0 5 0;
#X connect 7 0 0 1;
#X connect 8 0 1 0;
#X connect 10 0 14 0;
#X connect 11 0 10 0;
#X connect 12 0 9 0;
#X connect 12 0 9 1;
#X connect 14 0 12 1;
#X connect 14 0 13 0;
#X restore 537 375 pd caixa;
#X obj 537 349 bng 15 250 50 0 empty empty empty 17 7 0 10 -262144
-1 -1;
#N canvas 442 179 450 300 bd1 0;
#X obj 78 30 inlet;
#X obj 78 105 *~, f 2;
#X obj 78 57 ead~ 10 200;
#X obj 78 151 *~ 20;
#X obj 78 126 bp~ 100 20;
#X obj 92 85 noise~;
#X floatatom 150 152 5 0 0 0 - - -, f 5;
#X obj 150 127 r drum_vol;
#X obj 78 184 *~, f 2;
#X obj 78 212 dac~;
#X connect 0 0 2 0;
#X connect 1 0 4 0;
#X connect 2 0 1 0;
#X connect 3 0 8 0;
#X connect 4 0 3 0;
#X connect 5 0 1 1;
#X connect 6 0 8 1;
#X connect 7 0 6 0;
#X connect 8 0 9 0;
#X connect 8 0 9 1;
#X restore 607 375 pd bd1;
#X obj 607 349 bng 15 250 50 0 empty empty empty 17 7 0 10 -262144
-1 -1;
#N canvas 0 0 679 688 bd2 0;
#X obj 103 372 dac~;
#X obj 103 124 ead~ 10 100, f 13;
#X obj 103 244 *~;
#X obj 154 204 *~;
#X obj 154 225 bp~ 8000 20;
#X obj 103 285 *~ 4;
#X obj 103 265 clip~ -0.25 0.25;
#X obj 154 245 *~ 0.1;
#X obj 118 198 osc~ 60, f 4;
#X obj 169 175 noise~;
#X obj 103 90 inlet;
#X floatatom 226 290 5 0 0 0 - - -, f 5;
#X obj 226 265 r drum_vol;
#X obj 103 335 *~;
#X connect 1 0 3 0;
#X connect 1 0 2 0;
#X connect 2 0 6 0;
#X connect 3 0 4 0;
#X connect 4 0 7 0;
#X connect 5 0 13 0;
#X connect 6 0 5 0;
#X connect 7 0 6 0;
#X connect 8 0 2 1;
#X connect 9 0 3 1;
#X connect 10 0 1 0;
#X connect 11 0 13 1;
#X connect 12 0 11 0;
#X connect 13 0 0 0;
#X connect 13 0 0 1;
#X restore 677 376 pd bd2;
#X obj 677 350 bng 15 250 50 0 empty empty empty 17 7 0 10 -262144
-1 -1;
#X obj 557 44 r reset_bang;
#X obj 557 71 bng 15 250 50 0 empty empty empty 17 7 0 10 -262144 -1
-1;
#X msg 557 95 0;
#X obj 557 119 s reset;
#X obj 213 386 s seqdrum;
#X obj 401 187 r seqdrum;
#X obj 49 -73 r onoff_drums;
#X connect 0 0 3 0;
#X connect 0 0 9 0;
#X connect 1 0 0 0;
#X connect 2 0 55 0;
#X connect 3 0 0 1;
#X connect 4 0 8 0;
#X connect 4 0 7 0;
#X connect 5 0 14 1;
#X connect 5 0 4 0;
#X connect 6 0 25 0;
#X connect 7 0 1 0;
#X connect 8 0 0 0;
#X connect 9 0 2 0;
#X connect 10 0 14 0;
#X connect 11 0 12 0;
#X connect 12 0 13 0;
#X connect 12 0 16 0;
#X connect 12 1 15 0;
#X connect 12 1 17 0;
#X connect 13 0 4 0;
#X connect 14 0 11 0;
#X connect 15 0 8 0;
#X connect 16 0 7 0;
#X connect 17 0 7 0;
#X connect 18 0 19 0;
#X connect 19 0 8 1;
#X connect 20 0 23 0;
#X connect 21 0 22 0;
#X connect 22 0 24 0;
#X connect 23 0 21 0;
#X connect 23 1 22 1;
#X connect 24 0 8 1;
#X connect 25 0 27 0;
#X connect 25 1 28 0;
#X connect 25 2 29 0;
#X connect 25 3 30 0;
#X connect 25 4 31 0;
#X connect 25 5 32 0;
#X connect 25 6 33 0;
#X connect 25 7 34 0;
#X connect 25 8 35 0;
#X connect 25 9 36 0;
#X connect 25 10 37 0;
#X connect 25 11 38 0;
#X connect 25 12 39 0;
#X connect 25 13 40 0;
#X connect 25 14 41 0;
#X connect 25 15 42 0;
#X connect 26 0 44 0;
#X connect 26 1 46 0;
#X connect 26 2 48 0;
#X connect 26 3 50 0;
#X connect 27 0 26 0;
#X connect 28 0 26 1;
#X connect 29 0 26 2;
#X connect 30 0 26 3;
#X connect 31 0 26 4;
#X connect 32 0 26 5;
#X connect 33 0 26 6;
#X connect 34 0 26 7;
#X connect 35 0 26 8;
#X connect 36 0 26 9;
#X connect 37 0 26 10;
#X connect 38 0 26 11;
#X connect 39 0 26 12;
#X connect 40 0 26 13;
#X connect 41 0 26 14;
#X connect 42 0 26 15;
#X connect 44 0 43 0;
#X connect 46 0 45 0;
#X connect 48 0 47 0;
#X connect 50 0 49 0;
#X connect 51 0 52 0;
#X connect 52 0 53 0;
#X connect 53 0 54 0;
#X connect 56 0 6 0;
#X connect 57 0 5 0;
#X restore 449 327 pd drums;
#X obj 455 112 sel 0;
#X obj 455 77 tgl 26 0 empty empty empty 17 7 0 10 -196609 -1 -1 1
1;
#X msg 517 137 \; pd dsp 1;
#X msg 455 137 \; pd dsp 0;
#N canvas 0 0 1350 697 taptempo 0;
#N canvas 725 406 665 480 mstobpm 0;
#X floatatom 111 66 11 0 0 0 - timer_ms -, f 11;
#X floatatom 68 139 5 0 0 0 - - -, f 5;
#X obj 68 117 int;
#X obj 68 95 /;
#X obj 68 43 t b b;
#X obj 68 23 bng 15 250 50 0 empty empty empty 17 7 0 10 -262144 -1
-1;
#X msg 68 66 60000;
#X msg 204 33 60;
#X obj 204 2 loadbang;
#X obj 68 161 s bpm_number;
#X obj 68 2 r timer_ms;
#X obj 204 59 s bpm_number;
#X text 202 -15 Init. BPM;
#X text 70 -16 MS to BPM;
#X connect 0 0 3 1;
#X connect 1 0 9 0;
#X connect 2 0 1 0;
#X connect 3 0 2 0;
#X connect 4 0 6 0;
#X connect 5 0 4 0;
#X connect 6 0 3 0;
#X connect 7 0 11 0;
#X connect 8 0 7 0;
#X connect 10 0 5 0;
#X restore 214 53 pd mstobpm;
#X obj 45 12 key;
#X floatatom 79 53 5 0 0 0 - - -, f 5;
#X obj 45 88 ==;
#X msg 45 53 115;
#X obj 45 131 t b b;
#X obj 45 155 timer;
#X floatatom 45 176 5 0 0 0 - - -, f 5;
#X obj 45 243 s timer_ms;
#X obj 45 110 sel 1;
#X text 43 -7 Read Tap tempo;
#X text 147 53 MS to BPM:;
#X obj 45 197 moses 1500;
#X obj 384 140 gate 5;
#X obj 45 217 moses 50;
#X connect 1 0 2 0;
#X connect 1 0 4 0;
#X connect 2 0 3 1;
#X connect 3 0 9 0;
#X connect 4 0 3 0;
#X connect 5 0 6 0;
#X connect 5 1 6 1;
#X connect 6 0 7 0;
#X connect 7 0 12 0;
#X connect 9 0 5 0;
#X connect 12 0 14 0;
#X connect 14 1 8 0;
#X restore 449 264 pd taptempo;
#X obj 49 434 vsl 16 91 0 127 0 0 velocity load_velocity empty 0 -9
0 10 -262144 -1 -1 4800 1;
#X obj 89 434 vsl 16 91 0 500 0 0 adsr_decay load_decay empty 0 -9
0 10 -262144 -1 -1 1750 1;
#X obj 129 434 vsl 16 91 0.1 1 0 0 adsr_mod_env load_mod_env empty
0 -9 0 10 -262144 -1 -1 4950 1;
#X obj 169 434 vsl 16 91 0 5000 0 0 adsr_cutoff load_cutoff empty 0
-9 0 10 -262144 -1 -1 150 1;
#X obj 209 434 vsl 16 91 5 50 0 0 adsr_res load_res empty 0 -9 0 10
-262144 -1 -1 0 1;
#X text 80 415 Decay;
#X text 112 404 Mod Env;
#X text 156 415 Cutoff;
#X text 205 409 Res;
#X obj 314 423 vradio 26 0 0 5 wavetype load_wavetype empty 0 -8 0
10 -262144 -1 -1 2;
#X obj 250 434 vsl 16 91 0 1 0 0 pulsewidth load_pulsewidth empty 0
-9 0 10 -262144 -1 -1 4650 1;
#X text 230 405 Pulsewidth;
#X floatatom 45 537 5 0 0 0 - velocity_int -, f 5;
#X floatatom 86 537 5 0 0 0 - adsr_decay -, f 5;
#X floatatom 127 537 5 0 0 0 - adsr_mod_env -, f 5;
#X floatatom 168 536 5 0 0 0 - adsr_cutoff -, f 5;
#X floatatom 207 536 5 0 0 0 - adsr_res -, f 5;
#X floatatom 250 536 5 0 0 0 - pulsewidth -, f 5;
#X obj 24 599 tgl 15 0 onoff_drums empty empty 17 7 0 10 -262144 -1
-1 1 1;
#X text 43 597 ON/OFF;
#X obj 24 619 tgl 15 0 pause_drums empty empty 17 7 0 10 -262144 -1
-1 0 1;
#X text 45 618 PAUSE;
#X obj 116 616 hsl 128 15 0 1 0 0 drum_vol load_volume empty -2 -8
0 10 -262144 -1 -1 1800 1;
#X obj 294 615 bng 15 250 50 0 reset_bang empty empty 17 7 0 10 -262144
-1 -1;
#X text 315 613 RESET;
#X obj 90 729 hradio 16 0 0 16 empty seqdrum empty 0 -8 0 10 -262144
-1 -1 10;
#X text 109 630 4;
#X text 208 631 8;
#X text 301 631 12;
#X text 291 583 TEMPO:;
#X floatatom 331 584 7 0 0 0 - bpm_number bpm_manual, f 7;
#X text 114 598 DRUMS VOLUME;
#X text 145 242 MIN/MAX MIDI NOTE:;
#X floatatom 259 243 3 1 24 0 - load_min_rand rand_min, f 3;
#X text 281 241 /;
#X floatatom 293 243 3 48 128 0 - load_max_rand rand_max, f 3;
#X text 172 216 PITCH FREQUENCY:;
#X obj 389 223 tgl 15 0 correction_tog load_corr_toggle empty 17 7
0 10 -262144 -1 -1 1 1;
#X text 319 221 Correction:;
#N canvas 676 0 665 665 sendnote/correction 0;
#X obj 62 -53 r nota;
#X floatatom 62 312 5 0 0 0 - - -, f 5;
#X obj 276 77 sel 0 1 2 3 4 5 6 7 8 9 10 11 12 13 14 15;
#X msg 163 140 1;
#X msg 193 140 2;
#X msg 223 140 3;
#X msg 253 140 5;
#X msg 283 140 6;
#X msg 313 140 8;
#X obj 276 17 % 12;
#X obj 390 268 r corr_octave;
#X obj 490 220 r corr_note;
#X obj 104 313 r correction_tog;
#X obj 350 266 +;
#X obj 390 305 * 12;
#X obj 350 335 +;
#X floatatom 313 404 5 0 0 0 - - -, f 5;
#X obj 62 500 s to_synth;
#X obj 552 27 s load_corr_octave;
#X obj 552 -37 loadbang;
#X msg 552 -8 2;
#X obj 682 -37 loadbang;
#X obj 682 27 s load_corr_note;
#X msg 682 -8 1;
#X obj 62 424 +;
#X floatatom 62 468 5 0 0 0 - - -, f 5;
#X obj 104 340 sel 0;
#X obj 350 363 *;
#X obj 386 335 r correction_tog;
#X obj 62 387 *;
#X msg 104 363 1;
#X msg 131 363 0;
#X obj 792 -37 loadbang;
#X msg 792 -8 0;
#X obj 792 27 s load_corr_toggle;
#X msg 348 140 9;
#X msg 378 140 10;
#X msg 408 140 11;
#X msg 438 140 13;
#X msg 468 140 14;
#X msg 498 140 16;
#X msg 529 140 1;
#X msg 559 140 2;
#X msg 589 140 3;
#X msg 619 140 5;
#X connect 0 0 9 0;
#X connect 0 0 1 0;
#X connect 1 0 29 0;
#X connect 2 0 3 0;
#X connect 2 1 4 0;
#X connect 2 2 5 0;
#X connect 2 3 6 0;
#X connect 2 4 7 0;
#X connect 2 5 8 0;
#X connect 2 6 35 0;
#X connect 2 7 36 0;
#X connect 2 8 37 0;
#X connect 2 9 38 0;
#X connect 2 10 39 0;
#X connect 2 11 40 0;
#X connect 2 12 41 0;
#X connect 2 13 42 0;
#X connect 2 14 43 0;
#X connect 2 15 44 0;
#X connect 3 0 13 0;
#X connect 4 0 13 0;
#X connect 5 0 13 0;
#X connect 6 0 13 0;
#X connect 7 0 13 0;
#X connect 8 0 13 0;
#X connect 9 0 2 0;
#X connect 10 0 14 0;
#X connect 11 0 13 1;
#X connect 12 0 26 0;
#X connect 13 0 15 0;
#X connect 14 0 15 1;
#X connect 15 0 27 0;
#X connect 16 0 24 1;
#X connect 19 0 20 0;
#X connect 20 0 18 0;
#X connect 21 0 23 0;
#X connect 23 0 22 0;
#X connect 24 0 25 0;
#X connect 25 0 17 0;
#X connect 26 0 30 0;
#X connect 26 1 31 0;
#X connect 27 0 16 0;
#X connect 28 0 27 1;
#X connect 29 0 24 0;
#X connect 30 0 29 1;
#X connect 31 0 29 1;
#X connect 32 0 33 0;
#X connect 33 0 34 0;
#X connect 35 0 13 0;
#X connect 36 0 13 0;
#X connect 37 0 13 0;
#X connect 38 0 13 0;
#X connect 39 0 13 0;
#X connect 40 0 13 0;
#X connect 41 0 13 0;
#X connect 42 0 13 0;
#X connect 43 0 13 0;
#X connect 44 0 13 0;
#X restore 449 370 pd sendnote/correction;
#X floatatom 389 245 2 0 3 0 - load_corr_octave corr_octave, f 2;
#X text 321 243 Octave:;
#X text 321 263 Base note:;
#X floatatom 389 266 2 1 12 0 - load_corr_note corr_note, f 2;
#N canvas 334 0 665 658 waveforms 0;
#X obj 263 -125 cnv 15 190 336 empty empty Vibrato 17 33 1 14 -4096
-66577 0;
#X obj 555 284 cnv 15 244 164 empty empty empty 20 12 0 14 -135105
-66577 0;
#X obj 331 461 cnv 15 215 362 empty empty empty 20 12 0 14 -260113
-66577 0;
#X obj 154 462 cnv 15 167 360 empty empty empty 20 12 0 14 -230882
-66577 0;
#X obj 3 463 cnv 15 143 359 empty empty empty 20 12 0 14 -239829 -66577
0;
#X obj 553 462 cnv 15 543 363 empty empty empty 20 12 0 14 -122232
-66577 0;
#X obj 90 -94 r to_synth;
#X obj 87 5 mtof;
#X obj 90 183 r wavetype;
#X obj 15 572 *~ 2;
#X obj 15 600 -~ 1;
#X obj 15 545 phasor~;
#X text 16 495 SAW WAVE;
#X msg 90 284 0;
#X msg 118 284 1;
#X obj 15 723 *~;
#X obj 179 586 clip~ -1 1;
#X obj 179 744 *~;
#X obj 179 541 osc~;
#X obj 179 565 *~ 1000;
#X obj 274 476 vsl 15 73 0 127 0 0 empty distortionslid empty 0 -9
0 10 -262144 -1 -1 0 1;
#X floatatom 274 563 5 0 0 0 - - -, f 5;
#X text 197 494 SQUARE WAVE;
#X msg 169 283 0;
#X msg 197 283 1;
#X obj 353 547 osc~;
#X obj 353 601 *~ 2;
#X obj 353 627 -~ 1;
#X obj 464 543 sig~;
#X obj 353 575 expr~ $v1 > $v2;
#X obj 464 518 r pulsewidth;
#X obj 353 743 *~;
#X text 354 495 EXP WAVE;
#X msg 259 283 0;
#X msg 287 283 1;
#X obj 498 843 s~ waveform;
#X msg 611 548 set table1;
#X msg 611 573 set table2;
#X msg 611 598 set table3;
#X obj 696 487 loadbang;
#X obj 696 519 t b b;
#X obj 562 628 tabosc4~ table1;
#X msg 790 487 bang;
#X msg 696 636 \; table1 normalize \; table2 normalize;
#X msg 743 556 \; table1 sinesum 515 1 0 0.33 0 0.2 0 0.16 0 0.1 \;
table2 sinesum 515 0 0 0.33 0 0.2 0 0.16 0 0.1;
#X obj 562 766 *~;
#N canvas 0 22 450 300 (subpatch) 0;
#X array table1 515 float 1 black black;
#A 0 -0.0656161 0 0.0656161 0.130912 0.195569 0.259276 0.321729 0.382634
0.441711 0.498695 0.553341 0.60542 0.654728 0.701082 0.744324 0.784324
0.820974 0.854197 0.883942 0.910186 0.932933 0.952214 0.968085 0.98063
0.989954 0.996188 0.99948 1 0.997934 0.993485 0.986866 0.978303 0.968028
0.956282 0.943305 0.929342 0.914633 0.899418 0.883927 0.868384 0.853003
0.837984 0.823516 0.80977 0.796901 0.785049 0.77433 0.764847 0.756678
0.749885 0.744507 0.740564 0.73806 0.736976 0.737278 0.738913 0.741816
0.745904 0.751085 0.757252 0.764292 0.772082 0.780495 0.789398 0.798657
0.808138 0.817706 0.827232 0.836589 0.845658 0.854326 0.862489 0.870055
0.87694 0.883073 0.888395 0.892861 0.896436 0.899102 0.900851 0.90169
0.901637 0.900722 0.898987 0.896483 0.893272 0.889424 0.885014 0.880124
0.874843 0.869261 0.863468 0.857559 0.851625 0.845755 0.840037 0.834553
0.829379 0.824585 0.820233 0.816378 0.813065 0.81033 0.808201 0.806692
0.805811 0.805554 0.805908 0.80685 0.808349 0.810366 0.812854 0.815757
0.819018 0.822572 0.826349 0.830281 0.834293 0.838314 0.842273 0.846097
0.849722 0.853082 0.856121 0.858787 0.861032 0.862819 0.864118 0.864906
0.865171 0.864907 0.864118 0.86282 0.861032 0.858787 0.856122 0.853083
0.849722 0.846098 0.842273 0.838315 0.834294 0.830281 0.82635 0.822572
0.819019 0.815758 0.812854 0.810367 0.80835 0.80685 0.805908 0.805554
0.805811 0.806692 0.8082 0.81033 0.813064 0.816377 0.820232 0.824584
0.829378 0.834552 0.840036 0.845754 0.851623 0.857558 0.863467 0.869259
0.874842 0.880123 0.885012 0.889423 0.893272 0.896483 0.898986 0.900722
0.901637 0.90169 0.900851 0.899102 0.896437 0.892861 0.888396 0.883074
0.876941 0.870057 0.862491 0.854328 0.84566 0.836591 0.827234 0.817708
0.80814 0.798659 0.7894 0.780496 0.772084 0.764293 0.757253 0.751086
0.745905 0.741817 0.738914 0.737278 0.736976 0.73806 0.740564 0.744506
0.749883 0.756677 0.764845 0.774328 0.785046 0.796899 0.809767 0.823513
0.837981 0.853 0.868381 0.883923 0.899414 0.91463 0.929339 0.943302
0.956279 0.968026 0.978301 0.986865 0.993484 0.997934 1 0.99948 0.996189
0.989956 0.980632 0.968088 0.952217 0.932938 0.910192 0.883948 0.854204
0.820982 0.784332 0.744333 0.701091 0.654738 0.605431 0.553352 0.498707
0.441723 0.382647 0.321742 0.25929 0.195583 0.130926 0.0656302 1.42e-005
-0.0656019 -0.130898 -0.195555 -0.259263 -0.321715 -0.382621 -0.441698
-0.498683 -0.553329 -0.605409 -0.654717 -0.701072 -0.744315 -0.784315
-0.820966 -0.85419 -0.883936 -0.910181 -0.932929 -0.95221 -0.968082
-0.980627 -0.989953 -0.996187 -0.999479 -1 -0.997935 -0.993486 -0.986868
-0.978305 -0.968031 -0.956284 -0.943308 -0.929345 -0.914636 -0.899421
-0.88393 -0.868387 -0.853006 -0.837988 -0.823519 -0.809773 -0.796904
-0.785051 -0.774333 -0.764849 -0.75668 -0.749886 -0.744508 -0.740565
-0.73806 -0.736976 -0.737277 -0.738913 -0.741815 -0.745903 -0.751083
-0.75725 -0.76429 -0.77208 -0.780493 -0.789396 -0.798655 -0.808136
-0.817704 -0.82723 -0.836587 -0.845656 -0.854324 -0.862488 -0.870053
-0.876938 -0.883072 -0.888394 -0.89286 -0.896435 -0.899101 -0.900851
-0.90169 -0.901637 -0.900722 -0.898987 -0.896484 -0.893273 -0.889425
-0.885015 -0.880126 -0.874845 -0.869262 -0.863469 -0.85756 -0.851626
-0.845757 -0.840039 -0.834554 -0.82938 -0.824585 -0.820234 -0.816379
-0.813066 -0.810331 -0.808201 -0.806692 -0.805811 -0.805554 -0.805908
-0.80685 -0.808349 -0.810366 -0.812853 -0.815757 -0.819017 -0.822571
-0.826348 -0.83028 -0.834292 -0.838314 -0.842272 -0.846096 -0.849721
-0.853082 -0.856121 -0.858786 -0.861032 -0.862819 -0.864118 -0.864906
-0.865171 -0.864907 -0.864119 -0.86282 -0.861033 -0.858788 -0.856123
-0.853084 -0.849723 -0.846099 -0.842274 -0.838316 -0.834295 -0.830282
-0.826351 -0.822573 -0.81902 -0.815759 -0.812855 -0.810367 -0.80835
-0.806851 -0.805908 -0.805554 -0.805811 -0.806691 -0.8082 -0.810329
-0.813064 -0.816376 -0.820231 -0.824583 -0.829377 -0.834551 -0.840035
-0.845753 -0.851622 -0.857556 -0.863466 -0.869258 -0.874841 -0.880122
-0.885011 -0.889422 -0.893271 -0.896482 -0.898986 -0.900721 -0.901637
-0.90169 -0.900852 -0.899103 -0.896437 -0.892862 -0.888397 -0.883075
-0.876943 -0.870058 -0.862493 -0.854329 -0.845662 -0.836593 -0.827236
-0.81771 -0.808142 -0.798661 -0.789402 -0.780498 -0.772085 -0.764295
-0.757255 -0.751087 -0.745906 -0.741817 -0.738914 -0.737278 -0.736976
-0.738059 -0.740563 -0.744505 -0.749882 -0.756675 -0.764843 -0.774326
-0.785044 -0.796896 -0.809764 -0.82351 -0.837978 -0.852996 -0.868377
-0.88392 -0.899411 -0.914627 -0.929335 -0.943299 -0.956276 -0.968024
-0.978299 -0.986863 -0.993483 -0.997933 -0.999999 -0.99948 -0.99619
-0.989958 -0.980635 -0.968091 -0.952221 -0.932942 -0.910197 -0.883955
-0.854211 -0.820989 -0.78434 -0.744342 -0.701101 -0.654748 -0.605442
-0.553364 -0.498719 -0.441736 -0.38266 -0.321755 -0.259303 -0.195597
-0.13094 -0.0656444 -2.84e-005 0.0655877;
#X coords 0 1 514 -1 172 110 1;
#X restore 855 620 graph;
#X msg 353 282 0;
#X msg 381 282 1;
#X obj 90 -63 t b f;
#X obj 87 -22 +;
#X obj 153 -65 r transpose;
#X floatatom 153 -41 5 0 0 0 - - -, f 5;
#X obj 90 223 sel 0 1 2 3 4;
#X obj 573 331 osc~;
#X msg 446 281 0;
#X msg 474 281 1;
#X text 574 289 SINE WAVE;
#X text 566 490 ALIASING;
#X obj 90 342 s saw0;
#X obj 118 320 s saw1;
#X obj 169 342 s sqr0;
#X obj 197 320 s sqr1;
#X obj 259 345 s exp0;
#X obj 287 323 s exp1;
#X obj 353 345 s aa0;
#X obj 381 323 s aa1;
#X obj 446 345 s sin0;
#X obj 474 323 s sin1;
#X obj 58 599 r saw1;
#X obj 67 621 r sqr0;
#X obj 79 643 r exp0;
#X obj 90 666 r aa0;
#X obj 100 689 r sin0;
#X obj 253 657 r exp0;
#X obj 264 680 r aa0;
#X obj 274 703 r sin0;
#X obj 232 613 r saw0;
#X obj 241 635 r sqr1;
#X obj 462 698 r aa0;
#X obj 472 721 r sin0;
#X obj 430 631 r saw0;
#X obj 439 653 r sqr0;
#X obj 451 675 r exp1;
#X obj 656 738 r sin0;
#X obj 614 648 r saw0;
#X obj 623 670 r sqr0;
#X obj 635 692 r exp0;
#X obj 646 716 r aa1;
#X obj 681 367 r aa0;
#X obj 649 300 r saw0;
#X obj 658 322 r sqr0;
#X obj 670 344 r exp0;
#X obj 691 390 r sin1;
#X obj 344 -118 vsl 15 128 0.1 10 0 0 empty vib_freq empty 0 -9 0 10
-262144 -1 -1 0 1;
#X obj 344 79 osc~;
#X floatatom 344 58 5 0 0 0 - - -, f 5;
#X obj 344 116 *~;
#X obj 395 -118 vsl 15 128 0 4.95 0 0 empty vib_amp empty 0 -9 0 10
-262144 -1 -1 0 1;
#X floatatom 395 58 5 0 0 0 - - -, f 5;
#X obj 322 149 +~;
#X obj 87 28 s vibrato;
#X obj 269 107 r vibrato;
#X obj 322 174 s~ mtofnote;
#X obj 573 306 r~ mtofnote;
#X obj 15 516 r~ mtofnote;
#X obj 179 516 r~ mtofnote;
#X obj 353 519 r~ mtofnote;
#X obj 562 513 r~ mtofnote;
#X text 588 841 I don't know why \, using the sender only works when
they all use the same;
#X obj 600 -85 loadbang;
#X msg 600 -59 0;
#X obj 600 -35 s wavetype;
#X obj 679 -35 s load_pulsewidth;
#X obj 679 -89 loadbang;
#X msg 679 -63 0;
#X obj 573 407 *~;
#X connect 6 0 49 0;
#X connect 7 0 101 0;
#X connect 8 0 53 0;
#X connect 9 0 10 0;
#X connect 10 0 15 0;
#X connect 11 0 9 0;
#X connect 13 0 59 0;
#X connect 14 0 60 0;
#X connect 15 0 35 0;
#X connect 16 0 17 0;
#X connect 17 0 35 0;
#X connect 18 0 19 0;
#X connect 19 0 16 0;
#X connect 20 0 21 0;
#X connect 21 0 16 2;
#X connect 23 0 61 0;
#X connect 24 0 62 0;
#X connect 25 0 29 0;
#X connect 26 0 27 0;
#X connect 27 0 31 0;
#X connect 28 0 29 1;
#X connect 29 0 26 0;
#X connect 30 0 28 0;
#X connect 31 0 35 0;
#X connect 33 0 63 0;
#X connect 34 0 64 0;
#X connect 36 0 41 0;
#X connect 37 0 41 0;
#X connect 38 0 41 0;
#X connect 39 0 40 0;
#X connect 40 0 43 0;
#X connect 40 1 44 0;
#X connect 41 0 45 0;
#X connect 42 0 40 0;
#X connect 45 0 35 0;
#X connect 47 0 65 0;
#X connect 48 0 66 0;
#X connect 49 1 50 0;
#X connect 50 0 7 0;
#X connect 51 0 52 0;
#X connect 52 0 50 1;
#X connect 53 0 13 0;
#X connect 53 0 14 0;
#X connect 53 1 23 0;
#X connect 53 1 24 0;
#X connect 53 2 33 0;
#X connect 53 2 34 0;
#X connect 53 3 47 0;
#X connect 53 3 48 0;
#X connect 53 4 55 0;
#X connect 53 4 56 0;
#X connect 54 0 116 0;
#X connect 55 0 67 0;
#X connect 56 0 68 0;
#X connect 69 0 15 1;
#X connect 70 0 15 1;
#X connect 71 0 15 1;
#X connect 72 0 15 1;
#X connect 73 0 15 1;
#X connect 74 0 17 1;
#X connect 75 0 17 1;
#X connect 76 0 17 1;
#X connect 77 0 17 1;
#X connect 78 0 17 1;
#X connect 79 0 31 1;
#X connect 80 0 31 1;
#X connect 81 0 31 1;
#X connect 82 0 31 1;
#X connect 83 0 31 1;
#X connect 84 0 45 1;
#X connect 85 0 45 1;
#X connect 86 0 45 1;
#X connect 87 0 45 1;
#X connect 88 0 45 1;
#X connect 89 0 116 1;
#X connect 90 0 116 1;
#X connect 91 0 116 1;
#X connect 92 0 116 1;
#X connect 93 0 116 1;
#X connect 94 0 96 0;
#X connect 95 0 97 0;
#X connect 96 0 95 0;
#X connect 97 0 100 1;
#X connect 98 0 99 0;
#X connect 99 0 97 1;
#X connect 100 0 103 0;
#X connect 102 0 100 0;
#X connect 104 0 54 0;
#X connect 105 0 11 0;
#X connect 106 0 18 0;
#X connect 107 0 25 0;
#X connect 108 0 41 0;
#X connect 110 0 111 0;
#X connect 111 0 112 0;
#X connect 114 0 115 0;
#X connect 115 0 113 0;
#X connect 116 0 35 0;
#X restore 449 348 pd waveforms;
#X text 345 426 SAW WAVE;
#X text 345 453 SQUARE WAVE;
#X text 345 480 EXP. WAVE;
#X text 345 505 AA WAVE;
#X text 345 531 SINE WAVE;
#X text 229 417 (EXP. wave);
#X text 39 407 Attack;
#X obj 46 381 tgl 15 0 disable_ad empty empty 17 7 0 10 -262144 -1
-1 1 1;
#X text 67 379 Disable Attack/Decay;
#X text 180 358 WAVE MODS;
#X connect 116 0 119 0;
#X connect 116 1 118 0;
#X connect 117 0 116 0;
